<svg width="500" height="500" viewBox="0 0 500 500" fill="none" xmlns="http://www.w3.org/2000/svg">
<path d="M201.201 424.633L159.326 400.421C155.01 397.929 152.851 394.664 152.851 391.398C152.851 388.132 152.833 385.574 152.833 385.574L192.235 363.21C194.537 361.881 196.402 358.648 196.402 355.988V304.362L269.54 346.625L269.542 398.251C269.542 400.909 267.677 404.141 265.374 405.47L232.461 424.633C223.829 429.616 209.833 429.616 201.201 424.633Z" fill="#D2D2D2"/>
<path d="M251.984 407.392V413.193L265.39 405.468C267.677 404.144 269.553 400.919 269.553 398.249V346.628L255.618 338.588C255.329 342.128 255.018 345.784 254.729 349.347L264.498 355.002V395.336C264.498 398.006 262.645 401.231 260.335 402.554L251.984 407.392Z" fill="#D2D2D2"/>
<path d="M264.5 395.345C264.5 398.003 262.635 401.235 260.333 402.564L232.469 418.809C223.837 423.794 209.838 423.794 201.204 418.811L159.309 394.602C150.674 389.619 150.674 381.541 159.306 376.556L187.19 360.298C189.493 358.969 191.358 355.737 191.358 353.079V312.74L264.498 355.004L264.5 395.345Z" fill="url(#paint0_linear_197_4993)"/>
<path d="M178.701 365.209V365.204L187.19 360.303C189.493 358.974 191.358 355.741 191.358 353.084V312.745L264.498 355.008V395.35C264.498 398.007 262.633 401.24 260.33 402.569L251.987 407.385L178.701 365.209Z" fill="#B1B1B1"/>
<path d="M152.841 385.577C152.841 385.577 152.841 388.127 152.841 391.401C152.841 394.674 155.008 397.922 159.314 400.426L201.194 424.623C205.333 427.03 210.7 428.234 216.115 428.329V422.528C210.7 422.456 205.333 421.204 201.194 418.823L159.314 394.6C155.008 392.124 152.841 388.851 152.841 385.577Z" fill="#B1B1B1"/>
<path d="M381.933 451.041C379.234 452.6 374.712 452.515 371.834 450.854C335.878 430.094 124.936 308.31 88.9849 287.553C86.1076 285.892 83.7771 281.852 83.7771 278.53V30.9553C83.7771 27.6333 85.9645 23.6751 88.6655 22.1163C91.364 20.5575 95.887 20.6418 98.7643 22.3028L381.611 185.604C384.488 187.265 386.821 191.305 386.821 194.63L386.824 442.204C386.821 445.526 384.634 449.482 381.933 451.041Z" fill="#455A64"/>
<path d="M371.834 450.849L88.9847 287.547C86.1074 285.887 83.7743 281.846 83.7743 278.522V30.9471C83.7743 27.6251 86.1074 26.2784 88.9847 27.9394L371.829 191.241C374.706 192.902 377.039 196.942 377.039 200.266L377.042 447.841C377.044 451.163 374.711 452.51 371.834 450.849Z" fill="#37474F"/>
<path d="M372.6 451.88C375.488 453.155 379.482 453.107 381.938 451.689C384.634 450.125 386.824 446.177 386.824 442.832V414.988L377.052 420.643V448.487C377.052 451.52 375.128 452.89 372.6 451.88Z" fill="#E0E0E0"/>
<path d="M377.044 420.637V448.48C377.044 451.802 374.711 453.149 371.834 451.488L88.9847 288.189C86.1074 286.528 83.7743 282.488 83.7743 279.164V251.32L377.044 420.637Z" fill="url(#paint1_linear_197_4993)"/>
<path d="M367.27 399.455L367.267 203.509C367.267 201.516 365.867 199.091 364.142 198.094L96.6814 43.6755C94.954 42.6789 93.5537 43.4864 93.5537 45.4796L93.5435 241.431C93.5435 243.424 94.9439 245.849 96.6687 246.846L364.14 401.259C365.872 402.258 367.27 401.451 367.27 399.455Z" fill="url(#paint2_linear_197_4993)"/>
<path opacity="0.5" d="M367.27 399.455L367.267 203.509C367.267 201.516 365.867 199.091 364.142 198.094L96.6814 43.6755C94.954 42.6789 93.5537 43.4864 93.5537 45.4796L93.5435 241.431C93.5435 243.424 94.9439 245.849 96.6687 246.846L364.14 401.259C365.872 402.258 367.27 401.451 367.27 399.455Z" fill="white"/>
<path d="M230.414 346.628C233.115 348.187 235.303 351.979 235.303 355.097C235.303 358.214 233.113 359.477 230.414 357.918C227.713 356.359 225.526 352.567 225.526 349.449C225.523 346.332 227.713 345.07 230.414 346.628Z" fill="#455A64"/>
<path d="M375.511 195.109C376.449 196.744 377.027 198.599 377.052 200.258V420.641L386.824 414.986V194.626C386.824 192.965 386.223 191.112 385.283 189.477L375.511 195.109Z" fill="#263238"/>
<path d="M117.328 90.2739C117.337 90.1719 117.348 90.0795 117.378 89.9887C117.369 89.968 117.378 89.9473 117.388 89.9282C117.398 89.8262 117.429 89.7338 117.46 89.6525C117.501 89.5091 117.562 89.3769 117.643 89.2542C117.664 89.1937 117.704 89.1427 117.745 89.0917C117.775 89.0503 117.796 89.0105 117.836 88.9786C117.898 88.8973 117.958 88.8352 118.04 88.7747C118.04 88.7747 118.049 88.7651 118.06 88.7539C118.142 88.6934 118.234 88.6424 118.326 88.601C118.887 88.3349 119.612 88.4066 120.418 88.8671L326.225 207.638C327.94 208.627 329.337 211.046 329.337 213.026V361.983C329.337 361.992 329.334 362 329.334 362.008V362.689C329.334 363.531 328.862 364.207 328.214 364.557C328.169 364.588 328.125 364.616 328.082 364.645C328.031 364.675 327.98 364.706 327.917 364.737C327.836 364.779 327.744 364.809 327.651 364.83C327.519 364.86 327.387 364.881 327.253 364.881C326.938 364.89 326.579 364.788 326.222 364.584L326.141 364.538L326.135 364.535L323.168 362.822L120.415 245.763C118.701 244.773 117.304 242.364 117.304 240.374V90.6611C117.307 90.5288 117.318 90.3966 117.328 90.2739Z" fill="#557584"/>
<path d="M118.328 88.5998C118.889 88.3337 119.614 88.4054 120.42 88.8659L326.227 207.637C327.942 208.626 329.339 211.045 329.339 213.025V223.188L333.309 220.862V210.771C333.309 208.79 331.921 206.383 330.207 205.393L124.389 86.621C123.502 86.1 122.705 86.0904 122.135 86.4378C121.574 86.7739 118.991 88.2541 118.328 88.5998Z" fill="url(#paint3_linear_197_4993)"/>
<path d="M117.315 90.6391C117.328 88.6762 118.712 87.8812 120.422 88.8674L326.23 207.637C327.948 208.628 329.339 211.038 329.339 213.022L329.336 223.19L117.315 100.842V90.6391Z" fill="url(#paint4_linear_197_4993)"/>
<g opacity="0.5">
<path d="M120.422 88.8695L326.226 207.639C327.077 208.137 327.859 208.979 328.416 209.946L332.366 207.658C331.808 206.7 331.044 205.867 330.204 205.387L124.392 86.6182C123.503 86.1004 122.71 86.0925 122.133 86.4334C121.575 86.776 118.994 88.2418 118.339 88.5939C118.888 88.331 119.62 88.4091 120.422 88.8695Z" fill="white"/>
</g>
<path opacity="0.15" d="M333.314 220.875L333.313 210.768C333.313 209.761 332.943 208.645 332.366 207.659L328.407 209.938C328.984 210.916 329.336 212.02 329.336 213.027V223.193L333.314 220.875Z" fill="black"/>
<path d="M322.327 209.783C323.297 210.344 324.083 212.008 324.083 213.502C324.083 214.996 323.296 215.752 322.327 215.192C321.357 214.632 320.57 212.968 320.57 211.474C320.57 209.981 321.357 209.224 322.327 209.783Z" fill="#557584"/>
<path d="M316.002 206.127C316.972 206.687 317.759 208.351 317.759 209.845C317.759 211.34 316.972 212.095 316.002 211.536C315.031 210.975 314.246 209.312 314.246 207.817C314.246 206.324 315.033 205.567 316.002 206.127Z" fill="#557584"/>
<path d="M309.678 202.469C310.648 203.03 311.434 204.693 311.434 206.188C311.434 207.681 310.648 208.437 309.678 207.878C308.708 207.317 307.921 205.654 307.921 204.16C307.921 202.665 308.708 201.91 309.678 202.469Z" fill="#557584"/>
<path opacity="0.9" d="M328.222 364.567L328.383 364.476L331.66 362.58C332.548 362.077 333.142 361.178 333.284 360.17C333.305 360.018 333.314 359.867 333.314 359.716V220.86L329.341 223.19V362.681C329.341 363.457 328.947 364.092 328.372 364.446C328.342 364.476 328.302 364.495 328.271 364.516C328.262 364.526 328.262 364.537 328.251 364.537L328.222 364.567Z" fill="#445B66"/>
<path opacity="0.15" d="M133.656 125C133.839 125 134.046 125.06 134.266 125.185L165.024 142.935C165.781 143.372 166.398 144.44 166.398 145.313V193.945C166.398 194.197 166.341 194.468 166.254 194.639C166.157 194.831 166.019 195.026 165.894 195.099C165.83 195.135 165.8 195.148 165.772 195.162C165.736 195.18 165.696 195.194 165.655 195.203C165.597 195.216 165.538 195.225 165.479 195.225C165.473 195.225 165.466 195.225 165.46 195.225C165.325 195.225 165.175 195.18 165.024 195.094L134.266 177.322C133.509 176.885 132.892 175.823 132.892 174.944V125.979C132.892 125.92 132.896 125.861 132.901 125.808C132.905 125.762 132.91 125.722 132.923 125.681C132.919 125.672 132.923 125.663 132.928 125.654C132.932 125.609 132.946 125.568 132.959 125.533C132.978 125.469 133.005 125.411 133.04 125.357C133.049 125.33 133.067 125.307 133.085 125.285C133.099 125.267 133.108 125.249 133.126 125.236C133.153 125.199 133.18 125.173 133.216 125.145C133.216 125.145 133.22 125.141 133.225 125.136C133.261 125.109 133.302 125.087 133.342 125.068C133.437 125.023 133.542 125 133.656 125Z" fill="black"/>
<path d="M126.764 127.801C126.948 127.801 127.154 127.861 127.374 127.987L158.132 145.736C158.889 146.173 159.506 147.241 159.506 148.114V196.746C159.506 196.999 159.449 197.269 159.362 197.44C159.265 197.632 159.127 197.828 159.002 197.9C158.938 197.937 158.907 197.95 158.881 197.963C158.844 197.981 158.804 197.995 158.763 198.004C158.705 198.017 158.646 198.027 158.588 198.027C158.581 198.027 158.575 198.027 158.568 198.027C158.433 198.027 158.283 197.982 158.132 197.896L127.374 180.124C126.617 179.687 126 178.624 126 177.746V128.781C126 128.722 126.004 128.663 126.009 128.61C126.013 128.564 126.018 128.524 126.031 128.483C126.027 128.474 126.031 128.465 126.036 128.456C126.041 128.411 126.054 128.37 126.068 128.335C126.086 128.271 126.112 128.213 126.148 128.159C126.157 128.132 126.175 128.109 126.194 128.087C126.207 128.069 126.216 128.051 126.234 128.038C126.261 128.001 126.288 127.975 126.324 127.947C126.324 127.947 126.328 127.943 126.333 127.938C126.369 127.911 126.41 127.888 126.45 127.87C126.545 127.824 126.65 127.801 126.764 127.801Z" fill="#455A64"/>
<path d="M126.451 127.866C126.7 127.751 127.016 127.781 127.376 127.988L158.13 145.733C158.501 145.951 158.848 146.323 159.091 146.749H159.097L162.614 144.741C162.371 144.321 162.03 143.95 161.659 143.743L130.898 125.992C130.503 125.761 130.156 125.755 129.9 125.907C129.651 126.059 126.743 127.714 126.451 127.866Z" fill="#37474F"/>
<path d="M133.79 133.589C134.218 133.836 134.565 134.571 134.565 135.231C134.565 135.89 134.218 136.224 133.79 135.977C133.362 135.73 133.014 134.995 133.014 134.335C133.014 133.675 133.361 133.342 133.79 133.589Z" fill="#FAFAFA"/>
<path d="M130.998 131.975C131.426 132.222 131.774 132.957 131.774 133.616C131.774 134.276 131.426 134.61 130.998 134.363C130.57 134.115 130.223 133.381 130.223 132.721C130.223 132.061 130.57 131.727 130.998 131.975Z" fill="#FAFAFA"/>
<path d="M128.207 130.359C128.635 130.606 128.982 131.341 128.982 132.001C128.982 132.66 128.635 132.994 128.207 132.747C127.779 132.5 127.431 131.765 127.431 131.105C127.431 130.446 127.778 130.113 128.207 130.359Z" fill="#FAFAFA"/>
<path d="M159.362 197.44C159.454 197.251 159.493 197.016 159.506 196.746V152.601L159.504 152.603V148.114C159.504 147.67 159.348 147.182 159.094 146.75L162.614 144.741C162.868 145.177 163.031 145.669 163.031 146.114L163.032 150.575L163.03 150.577V194.72C163.03 194.986 162.971 195.238 162.872 195.445C162.823 195.553 162.67 195.786 162.453 195.914C162.428 195.929 159.299 197.723 159.172 197.799C159.109 197.836 159.05 197.867 159.001 197.899C159.015 197.89 159.211 197.749 159.362 197.44Z" fill="#263238"/>
<path d="M131.256 173.449L154.25 186.724C155.258 187.306 156.075 186.688 156.075 185.344V155.864C156.075 154.52 155.258 152.959 154.25 152.378L131.256 139.102C130.249 138.521 129.431 139.138 129.431 140.482V169.962C129.431 171.306 130.248 172.867 131.256 173.449Z" fill="url(#paint5_linear_197_4993)"/>
<path d="M153.216 179.622L132.289 167.54L137.521 159.865L140.137 166.845L145.973 154.105L153.216 179.622Z" fill="#FAFAFA"/>
<path d="M134.905 150.66C134.905 152.287 135.894 154.177 137.114 154.881C138.334 155.586 139.323 154.838 139.323 153.211C139.323 151.584 138.334 149.695 137.114 148.99C135.894 148.286 134.905 149.033 134.905 150.66Z" fill="#FAFAFA"/>
<path opacity="0.15" d="M192.656 220C192.839 220 193.046 220.06 193.266 220.185L224.024 237.935C224.781 238.372 225.398 239.439 225.398 240.313V288.945C225.398 289.197 225.341 289.468 225.254 289.639C225.157 289.831 225.019 290.026 224.894 290.099C224.83 290.135 224.8 290.148 224.772 290.162C224.736 290.18 224.696 290.194 224.655 290.203C224.597 290.216 224.538 290.225 224.479 290.225C224.473 290.225 224.466 290.225 224.46 290.225C224.325 290.225 224.175 290.18 224.024 290.094L193.266 272.322C192.509 271.885 191.892 270.823 191.892 269.944V220.979C191.892 220.92 191.896 220.862 191.901 220.808C191.905 220.762 191.91 220.722 191.923 220.681C191.919 220.672 191.923 220.663 191.928 220.654C191.932 220.609 191.946 220.568 191.959 220.533C191.978 220.469 192.005 220.411 192.04 220.357C192.049 220.33 192.067 220.307 192.085 220.285C192.099 220.267 192.108 220.249 192.126 220.235C192.153 220.199 192.18 220.172 192.216 220.145C192.216 220.145 192.22 220.14 192.225 220.136C192.261 220.108 192.302 220.086 192.342 220.068C192.437 220.023 192.542 220 192.656 220Z" fill="black"/>
<path d="M185.764 222.801C185.948 222.801 186.154 222.861 186.374 222.986L217.132 240.735C217.889 241.172 218.506 242.24 218.506 243.114V291.746C218.506 291.998 218.449 292.269 218.362 292.44C218.265 292.631 218.127 292.827 218.002 292.899C217.938 292.936 217.907 292.949 217.881 292.963C217.844 292.981 217.804 292.994 217.763 293.003C217.705 293.017 217.646 293.026 217.588 293.026C217.581 293.026 217.575 293.026 217.568 293.026C217.433 293.026 217.283 292.981 217.132 292.895L186.374 275.124C185.617 274.686 185 273.624 185 272.745V223.78C185 223.721 185.004 223.663 185.009 223.609C185.013 223.564 185.018 223.523 185.031 223.482C185.027 223.473 185.031 223.464 185.036 223.455C185.041 223.41 185.054 223.369 185.068 223.334C185.086 223.271 185.112 223.212 185.148 223.158C185.157 223.131 185.175 223.109 185.194 223.086C185.207 223.068 185.216 223.05 185.234 223.036C185.261 223 185.288 222.973 185.324 222.946C185.324 222.946 185.328 222.941 185.333 222.937C185.369 222.91 185.41 222.887 185.45 222.869C185.545 222.824 185.65 222.801 185.764 222.801Z" fill="#455A64"/>
<path d="M185.451 222.867C185.7 222.751 186.016 222.781 186.376 222.989L217.13 240.733C217.501 240.952 217.848 241.323 218.091 241.749H218.097L221.614 239.74C221.371 239.321 221.03 238.95 220.659 238.742L189.898 220.992C189.503 220.761 189.156 220.754 188.9 220.906C188.651 221.059 185.743 222.715 185.451 222.867Z" fill="#37474F"/>
<path d="M192.79 228.589C193.218 228.836 193.565 229.571 193.565 230.231C193.565 230.89 193.218 231.224 192.79 230.977C192.362 230.73 192.014 229.995 192.014 229.336C192.014 228.675 192.361 228.342 192.79 228.589Z" fill="#FAFAFA"/>
<path d="M189.998 226.974C190.426 227.222 190.774 227.956 190.774 228.616C190.774 229.275 190.426 229.61 189.998 229.363C189.57 229.115 189.223 228.381 189.223 227.721C189.223 227.062 189.57 226.727 189.998 226.974Z" fill="#FAFAFA"/>
<path d="M187.207 225.359C187.635 225.606 187.982 226.341 187.982 227.001C187.982 227.661 187.635 227.994 187.207 227.747C186.779 227.5 186.431 226.765 186.431 226.105C186.431 225.446 186.778 225.113 187.207 225.359Z" fill="#FAFAFA"/>
<path d="M218.362 292.44C218.454 292.251 218.493 292.016 218.506 291.746V247.601L218.504 247.603V243.114C218.504 242.67 218.348 242.182 218.094 241.75L221.614 239.741C221.868 240.177 222.031 240.67 222.031 241.114L222.032 245.575L222.03 245.577V289.72C222.03 289.986 221.971 290.238 221.872 290.446C221.823 290.553 221.67 290.786 221.453 290.914C221.428 290.93 218.299 292.724 218.172 292.8C218.109 292.836 218.05 292.868 218.001 292.899C218.015 292.89 218.211 292.749 218.362 292.44Z" fill="#263238"/>
<path d="M190.256 268.449L213.25 281.724C214.258 282.306 215.075 281.688 215.075 280.344V250.864C215.075 249.521 214.258 247.959 213.25 247.378L190.256 234.102C189.249 233.521 188.431 234.138 188.431 235.482V264.962C188.431 266.306 189.248 267.867 190.256 268.449Z" fill="url(#paint6_linear_197_4993)"/>
<path opacity="0.15" d="M277.657 234C277.84 234 278.047 234.06 278.266 234.185L309.025 251.935C309.781 252.372 310.399 253.439 310.399 254.313V302.945C310.399 303.197 310.341 303.468 310.255 303.639C310.157 303.831 310.02 304.026 309.894 304.099C309.831 304.135 309.8 304.148 309.773 304.162C309.737 304.18 309.696 304.194 309.656 304.203C309.597 304.216 309.539 304.225 309.48 304.225C309.474 304.225 309.467 304.225 309.461 304.225C309.326 304.225 309.175 304.18 309.025 304.094L278.266 286.322C277.509 285.885 276.892 284.822 276.892 283.943V234.978C276.892 234.919 276.897 234.861 276.901 234.807C276.906 234.762 276.91 234.721 276.924 234.681C276.919 234.672 276.924 234.663 276.928 234.654C276.933 234.609 276.947 234.568 276.96 234.533C276.978 234.469 277.005 234.411 277.041 234.357C277.05 234.33 277.069 234.307 277.087 234.285C277.1 234.267 277.109 234.249 277.127 234.235C277.154 234.199 277.182 234.172 277.217 234.145C277.217 234.145 277.222 234.14 277.226 234.136C277.262 234.108 277.303 234.086 277.344 234.068C277.437 234.023 277.542 234 277.657 234Z" fill="black"/>
<path d="M270.764 236.801C270.948 236.801 271.154 236.861 271.374 236.986L302.133 254.735C302.889 255.172 303.506 256.24 303.506 257.114V305.746C303.506 305.998 303.449 306.269 303.362 306.44C303.265 306.632 303.127 306.827 303.002 306.899C302.938 306.936 302.908 306.949 302.881 306.963C302.845 306.981 302.804 306.994 302.763 307.003C302.705 307.017 302.646 307.026 302.588 307.026C302.581 307.026 302.575 307.027 302.568 307.027C302.433 307.027 302.283 306.981 302.133 306.896L271.374 289.123C270.617 288.686 270 287.623 270 286.745V237.78C270 237.721 270.004 237.662 270.009 237.608C270.014 237.563 270.018 237.523 270.032 237.482C270.027 237.473 270.032 237.464 270.036 237.455C270.041 237.41 270.054 237.369 270.068 237.333C270.086 237.27 270.113 237.211 270.149 237.158C270.158 237.131 270.176 237.108 270.194 237.085C270.208 237.067 270.217 237.049 270.235 237.036C270.262 237 270.289 236.973 270.325 236.946C270.325 236.946 270.329 236.942 270.334 236.937C270.37 236.91 270.411 236.887 270.451 236.869C270.545 236.824 270.651 236.801 270.764 236.801Z" fill="#455A64"/>
<path d="M270.451 236.867C270.7 236.751 271.017 236.782 271.376 236.989L302.131 254.733C302.502 254.952 302.848 255.323 303.092 255.749H303.098L306.615 253.741C306.372 253.322 306.031 252.951 305.66 252.743L274.899 234.993C274.504 234.762 274.157 234.755 273.901 234.907C273.652 235.06 270.743 236.714 270.451 236.867Z" fill="#37474F"/>
<path d="M277.79 242.589C278.218 242.836 278.565 243.571 278.565 244.231C278.565 244.89 278.218 245.224 277.79 244.977C277.362 244.73 277.014 243.995 277.014 243.335C277.014 242.676 277.362 242.341 277.79 242.589Z" fill="#FAFAFA"/>
<path d="M274.998 240.974C275.426 241.221 275.773 241.956 275.773 242.616C275.773 243.275 275.426 243.609 274.998 243.362C274.57 243.115 274.223 242.38 274.223 241.721C274.223 241.061 274.57 240.727 274.998 240.974Z" fill="#FAFAFA"/>
<path d="M272.207 239.359C272.635 239.607 272.982 240.341 272.982 241.001C272.982 241.661 272.635 241.995 272.207 241.747C271.779 241.5 271.431 240.765 271.431 240.106C271.431 239.446 271.779 239.112 272.207 239.359Z" fill="#FAFAFA"/>
<path d="M303.362 306.44C303.454 306.251 303.492 306.016 303.506 305.746V261.601L303.504 261.603V257.114C303.504 256.67 303.348 256.182 303.094 255.75L306.613 253.741C306.868 254.178 307.031 254.669 307.031 255.114L307.031 259.575L307.029 259.577V303.72C307.029 303.986 306.971 304.238 306.872 304.445C306.822 304.553 306.67 304.786 306.453 304.914C306.427 304.929 303.298 306.723 303.172 306.8C303.109 306.836 303.05 306.868 303.001 306.899C303.015 306.89 303.212 306.749 303.362 306.44Z" fill="#263238"/>
<path d="M275.256 282.449L298.25 295.724C299.258 296.306 300.075 295.688 300.075 294.345V264.865C300.075 263.521 299.258 261.96 298.25 261.378L275.256 248.103C274.249 247.521 273.431 248.138 273.431 249.482V278.962C273.431 280.306 274.249 281.867 275.256 282.449Z" fill="url(#paint7_linear_197_4993)"/>
<path d="M290.15 264.564C290.139 264.564 290.125 264.561 290.111 264.558C290.106 264.556 290.1 264.556 290.095 264.556C290.092 264.556 290.092 264.553 290.089 264.553C290.086 264.55 290.081 264.55 290.078 264.55C290.075 264.55 290.072 264.548 290.072 264.548C290.055 264.543 290.042 264.534 290.028 264.526L283.48 260.745C283.331 260.659 283.21 260.45 283.21 260.276V257.392C283.21 257.379 283.21 257.362 283.212 257.348C283.212 257.346 283.212 257.342 283.215 257.34C283.237 257.204 283.347 257.16 283.479 257.235L290.028 261.018C290.102 261.059 290.171 261.134 290.218 261.219C290.268 261.302 290.298 261.399 290.298 261.484V264.37C290.299 264.492 290.238 264.564 290.15 264.564ZM290.078 265.097C290.081 265.097 290.084 265.097 290.084 265.097C290.086 265.1 290.089 265.1 290.089 265.1C290.086 265.097 290.081 265.097 290.078 265.097ZM286.907 284.081V271.937C287.316 272.076 287.627 271.781 287.627 271.209C287.627 270.565 287.236 269.819 286.754 269.54C286.273 269.262 285.882 269.558 285.882 270.199C285.882 270.773 286.193 271.427 286.601 271.759V283.903L282.132 269.367C282.082 269.202 282.135 268.966 282.245 268.834C283.318 267.544 284.109 265.625 284.387 263.037C284.405 262.866 284.538 262.797 284.687 262.883L288.821 265.27C288.97 265.356 289.102 265.565 289.118 265.736C289.399 268.727 290.225 271.641 291.343 274.227C291.411 274.385 291.408 274.639 291.334 274.794L286.907 284.081ZM278.5 279.988C278.839 279.988 279.113 280.262 279.113 280.601C279.113 280.661 279.102 280.717 279.086 280.772L284.846 284.097C281.328 281.135 278.661 276.069 278.438 271.662C278.156 271.607 277.943 271.359 277.943 271.061C277.943 270.722 278.217 270.448 278.556 270.448C278.894 270.448 279.169 270.722 279.169 271.061C279.169 271.362 278.952 271.611 278.666 271.664C278.927 276.741 282.479 282.709 286.81 285.21C288.968 286.456 290.992 286.661 292.507 285.786C293.899 284.982 294.713 283.349 294.837 281.156C294.569 281.091 294.369 280.851 294.369 280.563C294.369 280.224 294.644 279.949 294.983 279.949C295.321 279.949 295.596 280.224 295.596 280.563C295.596 280.872 295.366 281.125 295.068 281.167C294.941 283.441 294.085 285.14 292.622 285.984C291.967 286.362 291.225 286.55 290.423 286.55C289.833 286.55 289.208 286.446 288.563 286.244L294.536 289.693C294.561 289.663 294.589 289.636 294.618 289.611C294.626 289.603 294.634 289.599 294.641 289.592C294.743 289.516 294.868 289.47 295.006 289.47C295.345 289.47 295.619 289.744 295.619 290.083C295.619 290.421 295.345 290.696 295.006 290.696C294.667 290.696 294.393 290.422 294.393 290.083C294.393 290.017 294.406 289.954 294.425 289.894L278.981 280.977C278.947 281.021 278.907 281.06 278.862 281.093C278.856 281.098 278.85 281.104 278.844 281.108C278.746 281.175 278.627 281.215 278.499 281.215C278.16 281.215 277.885 280.94 277.885 280.601C277.887 280.262 278.161 279.988 278.5 279.988Z" fill="white"/>
<path d="M336.775 87.4349L385.128 115.326C386.114 115.895 386.914 117.279 386.914 118.417V163.239C386.914 164.377 386.109 165.752 385.118 166.311L381.718 168.24C380.726 168.8 379.124 168.792 378.138 168.223L329.785 140.332C328.799 139.763 328 138.379 328 137.24V92.4199C328 91.2819 328.804 89.9049 329.795 89.3459L333.195 87.4169C334.186 86.8579 335.789 86.8649 336.775 87.4349Z" fill="url(#paint8_linear_197_4993)"/>
<path opacity="0.2" d="M378.138 168.223C379.088 168.774 380.824 168.793 381.721 168.244L385.118 166.308C386.107 165.755 386.914 164.377 386.914 163.239V118.417C386.914 117.824 386.692 117.172 386.346 116.595L379.396 120.617C379.725 121.169 379.923 121.804 379.923 122.373V167.189C379.923 168.231 379.189 168.833 378.138 168.223Z" fill="black"/>
<g opacity="0.2">
<path d="M328.024 92.0968C328.164 91.1978 328.898 90.8758 329.788 91.3878L378.134 119.281C378.629 119.569 379.074 120.056 379.396 120.617L386.354 116.595C386.032 116.059 385.604 115.597 385.125 115.325L336.77 87.4318C335.789 86.8628 334.189 86.8548 333.192 87.4158L329.795 89.3428C328.897 89.8538 328.147 91.0328 328.024 92.0968Z" fill="white"/>
</g>
<path d="M329.785 91.3898L378.138 119.281C379.124 119.85 379.923 121.234 379.923 122.373V147.556V167.193C379.923 168.331 379.123 168.793 378.138 168.223L329.785 140.332C328.799 139.763 328 138.379 328 137.24V92.4198C328 91.2818 328.799 90.8208 329.785 91.3898Z" fill="url(#paint9_linear_197_4993)"/>
<path d="M375.139 141.613C375.139 141.181 375.071 140.811 374.94 140.505C374.809 140.199 374.62 139.854 374.374 139.468L363.831 122.425C363.762 122.332 363.704 122.265 363.66 122.224C363.616 122.186 363.577 122.157 363.541 122.136C363.383 122.044 363.252 122.05 363.147 122.151C363.041 122.252 362.988 122.425 362.988 122.669V129.242C362.988 129.783 363.09 130.239 363.292 130.614C363.494 130.988 363.674 131.288 363.832 131.514L368.444 138.599L363.832 140.399C363.674 140.444 363.494 140.53 363.292 140.656C363.09 140.783 362.988 141.117 362.988 141.658V148.231C362.988 148.474 363.041 148.708 363.147 148.931C363.252 149.154 363.383 149.311 363.541 149.402C363.578 149.422 363.616 149.438 363.66 149.45C363.704 149.462 363.762 149.462 363.831 149.447L374.374 144.578C374.62 144.477 374.809 144.349 374.94 144.195C375.071 144.043 375.139 143.749 375.139 143.316V141.613Z" fill="white"/>
<path d="M352.156 112.722C352.067 112.375 351.936 112.022 351.761 111.663C351.585 111.305 351.33 111.029 350.996 110.837L347.465 108.798C347.307 108.707 347.172 108.717 347.057 108.826C346.944 108.936 346.886 109.112 346.886 109.355C346.886 109.464 346.904 109.595 346.939 109.752L355.848 147.721C355.917 148.032 356.04 148.374 356.217 148.745C356.392 149.117 356.656 149.406 357.007 149.608L360.46 151.601C360.616 151.692 360.753 151.682 360.867 151.572C360.982 151.461 361.04 151.285 361.04 151.042C361.04 150.934 361.022 150.802 360.985 150.647L352.156 112.722Z" fill="white"/>
<path d="M332.785 118.865C332.785 119.299 332.851 119.669 332.983 119.973C333.116 120.279 333.304 120.625 333.551 121.011L344.093 138.053C344.162 138.148 344.22 138.215 344.264 138.254C344.307 138.292 344.347 138.322 344.382 138.343C344.541 138.434 344.672 138.429 344.777 138.327C344.883 138.226 344.935 138.053 344.935 137.81V131.237C344.935 130.696 344.835 130.245 344.633 129.886C344.431 129.527 344.25 129.231 344.093 129.005L339.481 121.879L344.093 120.12C344.249 120.075 344.431 119.983 344.633 119.844C344.835 119.702 344.935 119.363 344.935 118.821V112.248C344.935 112.005 344.883 111.771 344.777 111.548C344.672 111.326 344.541 111.168 344.382 111.077C344.347 111.056 344.307 111.039 344.264 111.028C344.22 111.018 344.162 111.018 344.093 111.031L333.551 115.901C333.305 116.002 333.116 116.129 332.983 116.283C332.852 116.437 332.785 116.731 332.785 117.163V118.865Z" fill="white"/>
<defs>
<linearGradient id="paint0_linear_197_4993" x1="208.666" y1="312.74" x2="208.666" y2="422.548" gradientUnits="userSpaceOnUse">
<stop stop-color="#CADEE7"/>
<stop offset="1" stop-color="#C0C0C0"/>
</linearGradient>
<linearGradient id="paint1_linear_197_4993" x1="230.409" y1="251.32" x2="230.409" y2="452.199" gradientUnits="userSpaceOnUse">
<stop stop-color="#CADEE7"/>
<stop offset="1" stop-color="#C0C0C0"/>
</linearGradient>
<linearGradient id="paint2_linear_197_4993" x1="230.407" y1="43.2485" x2="230.407" y2="401.688" gradientUnits="userSpaceOnUse">
<stop stop-color="#2DBFE0"/>
<stop offset="1" stop-color="#3F6394"/>
</linearGradient>
<linearGradient id="paint3_linear_197_4993" x1="225.819" y1="86.1997" x2="225.819" y2="223.188" gradientUnits="userSpaceOnUse">
<stop stop-color="#2DBFE0"/>
<stop offset="1" stop-color="#3F6394"/>
</linearGradient>
<linearGradient id="paint4_linear_197_4993" x1="223.327" y1="88.4438" x2="223.327" y2="223.19" gradientUnits="userSpaceOnUse">
<stop stop-color="#2DBFE0"/>
<stop offset="1" stop-color="#3F6394"/>
</linearGradient>
<linearGradient id="paint5_linear_197_4993" x1="142.753" y1="138.883" x2="142.753" y2="186.943" gradientUnits="userSpaceOnUse">
<stop stop-color="#2DBFE0"/>
<stop offset="1" stop-color="#3F6394"/>
</linearGradient>
<linearGradient id="paint6_linear_197_4993" x1="201.753" y1="233.883" x2="201.753" y2="281.943" gradientUnits="userSpaceOnUse">
<stop stop-color="#2DBFE0"/>
<stop offset="1" stop-color="#3F6394"/>
</linearGradient>
<linearGradient id="paint7_linear_197_4993" x1="286.753" y1="247.884" x2="286.753" y2="295.943" gradientUnits="userSpaceOnUse">
<stop stop-color="#2DBFE0"/>
<stop offset="1" stop-color="#3F6394"/>
</linearGradient>
<linearGradient id="paint8_linear_197_4993" x1="357.457" y1="87.0024" x2="357.457" y2="168.655" gradientUnits="userSpaceOnUse">
<stop stop-color="#2DBFE0"/>
<stop offset="1" stop-color="#3F6394"/>
</linearGradient>
<linearGradient id="paint9_linear_197_4993" x1="353.962" y1="91.146" x2="353.962" y2="168.467" gradientUnits="userSpaceOnUse">
<stop stop-color="#2DBFE0"/>
<stop offset="1" stop-color="#3F6394"/>
</linearGradient>
</defs>
</svg>
