<svg width="100" height="100" viewBox="0 0 100 100" fill="none" xmlns="http://www.w3.org/2000/svg">
<g clip-path="url(#clip0_216_19)">
<path d="M100 0.000488281H0V100H100V0.000488281Z" fill="#017ACB"/>
<path d="M52.5157 46.6093H57.3126V54.8906H44.3438V91.7343L44 91.8281C43.5313 91.9531 37.3594 91.9531 36.0313 91.8125L34.9688 91.7187V54.8906H22V46.6093L26.1094 46.5625C28.3594 46.5312 34.1406 46.5312 38.9532 46.5625C43.7657 46.5937 49.8594 46.6093 52.5157 46.6093ZM89.1251 87.8281C87.2189 89.8437 85.172 90.9687 81.7657 91.8906C80.2813 92.2968 80.0313 92.3125 76.6876 92.2968C73.3438 92.2812 73.0782 92.2812 71.4532 91.8593C67.2501 90.7812 63.8594 88.6718 61.5469 85.6875C60.8907 84.8437 59.8126 83.0937 59.8126 82.875C59.8126 82.8125 59.9688 82.6718 60.1719 82.5781C60.3751 82.4843 60.7969 82.2187 61.1407 82.0156C61.4844 81.8125 62.1094 81.4375 62.5313 81.2187C62.9532 81 64.1719 80.2812 65.2345 79.6406C66.297 79 67.2657 78.4843 67.3751 78.4843C67.4845 78.4843 67.6876 78.7031 67.8438 78.9687C68.7813 80.5468 70.9688 82.5625 72.5157 83.25C73.4688 83.6562 75.5782 84.1093 76.5938 84.1093C77.5313 84.1093 79.2501 83.7031 80.172 83.2812C81.1563 82.8281 81.6564 82.375 82.2501 81.4687C82.6564 80.8281 82.7032 80.6562 82.6876 79.4375C82.6876 78.3125 82.6251 78 82.3126 77.4843C81.4376 76.0468 80.2501 75.2968 75.4376 73.1718C70.4688 70.9687 68.2345 69.6562 66.4219 67.8906C65.0782 66.5781 64.8126 66.2187 63.9688 64.5781C62.8751 62.4687 62.7344 61.7812 62.7188 58.6406C62.7032 56.4375 62.7501 55.7187 62.9844 54.9687C63.3126 53.8437 64.3751 51.6718 64.8594 51.125C65.8594 49.9531 66.2188 49.5937 66.922 49.0156C69.047 47.2656 72.3595 46.1093 75.5313 46C75.8907 46 77.0782 46.0625 78.1876 46.1406C81.3751 46.4062 83.547 47.1875 85.6407 48.8593C87.2189 50.1093 89.6095 53.0468 89.3751 53.4375C89.2189 53.6718 82.9845 57.8281 82.5782 57.9531C82.3282 58.0312 82.1564 57.9375 81.8126 57.5312C79.6876 54.9843 78.8282 54.4375 76.7657 54.3125C75.297 54.2187 74.5157 54.3906 73.5313 55.0468C72.5001 55.7343 72.0001 56.7812 72.0001 58.2343C72.0157 60.3593 72.8282 61.3593 75.8282 62.8437C77.7657 63.7968 79.422 64.5781 79.547 64.5781C79.7345 64.5781 83.7501 66.5781 84.797 67.2031C89.672 70.0625 91.6564 73 92.172 78.0625C92.547 81.875 91.4689 85.3593 89.1251 87.8281Z" fill="white"/>
</g>
<defs>
<clipPath id="clip0_216_19">
<rect width="100" height="100" rx="10" fill="white"/>
</clipPath>
</defs>
</svg>
