<svg width="498" height="531" viewBox="0 0 498 531" fill="none" xmlns="http://www.w3.org/2000/svg">
<path d="M361 141C352.917 167.096 342.372 202.693 334.334 238.5M334.334 238.5C341.405 207 322.4 141 260 141C197.6 141 165.333 206 157 238.5C147 277.5 145 370.6 203 381C261 391.4 319.585 334 324.493 293.5M334.334 238.5C330.132 257.219 326.615 275.994 324.493 293.5M324.493 293.5C318.958 339.178 322.922 376.206 349 381C417 393.5 485.319 307.187 478.292 197C471.5 90.5 389.972 19 271.5 19C128.458 19 19 129.958 19 273C19 416.042 112.958 511.5 256 511.5C300.527 511.5 339.474 501.669 372 483.813" stroke="url(#paint0_linear_343_556)" stroke-width="38" stroke-linecap="round"/>
<defs>
<linearGradient id="paint0_linear_343_556" x1="19" y1="512" x2="479" y2="19" gradientUnits="userSpaceOnUse">
<stop stop-color="#3F6394"/>
<stop offset="1" stop-color="#2DBFE0"/>
</linearGradient>
</defs>
</svg>
