<svg width="100" height="100" viewBox="0 0 100 100" fill="none" xmlns="http://www.w3.org/2000/svg">
<g clip-path="url(#clip0_216_310)">
<path d="M100 0.000488281H0V100H100V0.000488281Z" fill="#13222A"/>
<path d="M56.2372 30.5698H43.7278L31.1092 66.4294H39.3596L41.9479 59.0954H54.4595L52.2393 52.786H44.1589L49.9824 36.2319L60.603 66.4236L60.6053 66.4294H68.8556L56.2372 30.5698Z" fill="#FFEADB"/>
<path d="M83.9905 30.878C83.783 30.5104 83.4381 30.2402 83.0318 30.1269C82.6249 30.0136 82.1899 30.0664 81.8223 30.2737C81.4547 30.481 81.1845 30.8259 81.0718 31.2324C80.9584 31.639 81.0111 32.0739 81.2186 32.4415C85.4382 39.9444 86.8145 48.7161 85.0953 57.1509C83.3761 65.5856 78.6768 73.1191 71.8577 78.3722C65.0383 83.6252 56.5551 86.2471 47.9609 85.7567C39.3668 85.2664 31.2367 81.6972 25.0589 75.7027C18.8811 69.7081 15.069 61.6891 14.3204 53.1135C13.5717 44.538 15.9366 35.9797 20.9821 29.0053C26.0277 22.0309 33.4163 17.107 41.7955 15.1349C50.1747 13.1629 58.9838 14.2746 66.6103 18.2666C66.366 19.3916 66.5281 20.5669 67.0681 21.5837C67.608 22.6005 68.4908 23.3931 69.5596 23.8208C70.6285 24.2485 71.8143 24.2836 72.9066 23.92C73.9989 23.5563 74.927 22.8174 75.5262 21.8344C76.1255 20.8514 76.357 19.6878 76.1797 18.5503C76.0024 17.4127 75.4279 16.3748 74.5579 15.6207C73.688 14.8666 72.5791 14.4452 71.4279 14.4312C70.2767 14.4172 69.1578 14.8115 68.2698 15.5441C59.9805 11.1488 50.3846 9.88918 41.2417 11.9962C32.0989 14.1032 24.0222 19.4357 18.4927 27.0156C12.9632 34.5955 10.3516 43.9148 11.1369 53.2644C11.9222 62.6139 16.0518 71.367 22.7683 77.9185C29.4847 84.4698 38.3378 88.3799 47.704 88.9323C57.0702 89.4847 66.3215 86.642 73.7615 80.9253C81.2012 75.2092 86.3308 67.0021 88.2101 57.8096C90.0888 48.6171 88.5904 39.0553 83.9905 30.878Z" fill="#FFEADB"/>
</g>
<defs>
<clipPath id="clip0_216_310">
<rect width="100" height="100" rx="10" fill="white"/>
</clipPath>
</defs>
</svg>
