<svg width="100" height="100" viewBox="0 0 100 100" fill="none" xmlns="http://www.w3.org/2000/svg">
<path fill-rule="evenodd" clip-rule="evenodd" d="M0.234375 51.9531V44.4531C0.390625 44.375 0.390625 44.2188 0.390625 44.0625C2.73437 33.8281 9.14063 27.6562 19.2969 25.2344C20.1563 25 21.0938 25.0781 21.9531 24.7656H26.9531C27.0313 24.9219 27.2656 24.8437 27.4219 24.8437C32.4219 25.3906 36.9531 27.1875 40.9375 30.3125C44.375 32.8906 47.0313 36.1719 49.4531 39.6875C49.7656 40.1562 49.9219 40.1562 50.2344 39.6875C51.6406 37.6562 53.125 35.7031 54.8437 33.9063C58.9844 29.4531 63.9844 26.3281 70.0781 25.2344C70.9375 25 71.9531 25.0781 72.8125 24.7656H77.6562C77.7344 24.9219 77.8906 24.8437 78.0469 24.8437C79.5312 25 80.9375 25.3125 82.3437 25.7031C92.8125 28.75 100.234 38.3594 99.6094 49.2187C99.1406 58.3594 94.5312 64.9219 86.4844 69.0625C82.5 71.25 78.125 71.7969 73.5937 71.7188C67.6562 71.6406 62.5 69.6094 58.0469 65.7031C54.9219 62.9687 52.5 59.6875 50.2344 56.25C49.9219 55.7812 49.7656 55.8594 49.4531 56.3281C48.0469 58.4375 46.5625 60.5469 44.8438 62.5781C41.7969 66.0156 38.2813 68.8281 33.9063 70.3125C28.5156 72.1875 23.0469 72.2656 17.5781 70.7812C9.6875 68.5156 4.29688 63.5156 1.32813 55.8594C0.859375 54.6094 0.625 53.2031 0.234375 51.9531ZM25.0781 63.4375C29.5312 63.5937 33.3594 62.1094 36.6406 59.0625C40 55.9375 42.4219 52.0313 44.8438 48.2031C44.9219 47.9687 44.9219 47.8125 44.7656 47.5781C42.7344 44.375 40.625 41.1719 37.8125 38.5156C32.4219 33.3594 26.0938 31.6406 18.9844 33.9063C13.125 35.8594 9.375 40 8.51562 46.25C7.65625 52.1094 9.92188 56.7969 14.6094 60.3125C17.7344 62.5781 21.25 63.5156 25.0781 63.4375ZM74.6094 63.4375C76.3281 63.4375 78.0469 63.3594 79.6875 62.8906C85.8594 61.0156 89.9219 57.1875 91.0937 50.7812C92.2656 44.4531 89.8437 39.375 84.5312 35.7812C78.6719 31.7187 70.1562 32.1094 64.2187 36.5625C60.2344 39.5312 57.5781 43.5156 54.9219 47.6562C54.7656 47.8906 54.8437 48.0469 54.9219 48.2812C57.0313 51.6406 59.1406 55 61.875 57.8906C65.3125 61.5625 69.4531 63.6719 74.6094 63.4375Z" fill="#00979C"/>
<path fill-rule="evenodd" clip-rule="evenodd" d="M25 45.7031C27.5 45.7031 30.0781 45.7812 32.5781 45.7031C33.2031 45.7031 33.2812 45.8594 33.2812 46.4844C33.2031 47.1875 33.2031 47.8906 33.2812 48.5938C33.3594 49.2188 33.2031 49.375 32.5 49.375H22.5C20.7812 49.375 19.0625 49.2969 17.3438 49.375C16.7969 49.375 16.6406 49.2188 16.6406 48.5938C16.7187 47.8906 16.7187 47.1875 16.6406 46.4063C16.6406 45.8594 16.7969 45.7031 17.3438 45.7031C19.8438 45.7812 22.4219 45.7031 25 45.7031ZM74.2187 40.7031C74.8437 40.7031 75.4687 40.7813 76.0156 40.7031C76.4062 40.7031 76.5625 40.8594 76.5625 41.25C76.4844 42.3438 76.5625 43.4375 76.4844 44.5312C76.4844 45.0781 76.6406 45.2344 77.1875 45.2344C78.2031 45.1563 79.2969 45.2344 80.3906 45.1562C80.8594 45.1562 81.0156 45.2344 81.0156 45.7812V49.375C81.0156 49.7656 80.8594 49.9219 80.4687 49.9219C79.375 49.8438 78.2812 49.9219 77.1094 49.8437C76.6406 49.8437 76.4844 50 76.4844 50.4687C76.5625 51.5625 76.4844 52.6563 76.5625 53.75C76.5625 54.2188 76.4062 54.4531 75.9375 54.4531C74.7656 54.375 73.5937 54.375 72.4219 54.4531C71.9531 54.4531 71.7969 54.2969 71.7969 53.8281C71.875 52.6563 71.7969 51.5625 71.875 50.3906C71.875 50 71.7187 49.8437 71.3281 49.8437C70.2344 49.9219 69.1406 49.8438 68.0469 49.9219C67.4219 49.9219 67.3437 49.6875 67.3437 49.2187C67.3437 48.125 67.4219 47.0312 67.3437 45.9375C67.2656 45.3125 67.5781 45.1562 68.125 45.1562C69.2187 45.2344 70.2344 45.1563 71.3281 45.2344C71.7187 45.2344 71.875 45.0781 71.875 44.6875C71.7969 43.5938 71.875 42.4219 71.7969 41.3281C71.7969 40.8594 71.9531 40.7031 72.4219 40.7031C73.0469 40.7813 73.5937 40.7031 74.2187 40.7031Z" fill="#00979C"/>
</svg>
