<svg width="100" height="100" viewBox="0 0 100 100" fill="none" xmlns="http://www.w3.org/2000/svg">
<g clip-path="url(#clip0_216_331)">
<path d="M100 0.000488281H0V100H100V0.000488281Z" fill="#512BD4"/>
<path d="M26.2718 43H23.0105L30.3386 22.6364H33.8883L41.2164 43H37.9551L32.198 26.3352H32.0389L26.2718 43ZM26.8187 35.0256H37.3983V37.6108H26.8187V35.0256ZM55.0996 27.9858C54.9935 27.0445 54.556 26.3153 53.7871 25.7983C53.0182 25.2746 52.0504 25.0128 50.8837 25.0128C50.0485 25.0128 49.3259 25.1454 48.7161 25.4105C48.1062 25.669 47.6323 26.027 47.2942 26.4844C46.9628 26.9351 46.7971 27.4489 46.7971 28.0256C46.7971 28.5095 46.9097 28.9271 47.1351 29.2784C47.3671 29.6297 47.6687 29.9247 48.04 30.1634C48.4178 30.3954 48.8221 30.5909 49.253 30.75C49.6839 30.9025 50.0982 31.0284 50.4959 31.1278L52.4846 31.6449C53.1342 31.804 53.8004 32.0194 54.4831 32.2912C55.1659 32.563 55.7989 32.9209 56.3823 33.3651C56.9656 33.8092 57.4363 34.3594 57.7942 35.0156C58.1588 35.6719 58.3411 36.4574 58.3411 37.3722C58.3411 38.5256 58.0428 39.5497 57.4462 40.4446C56.8562 41.3395 55.9978 42.0455 54.8709 42.5625C53.7507 43.0795 52.3951 43.3381 50.8042 43.3381C49.2795 43.3381 47.9604 43.0961 46.8468 42.6122C45.7331 42.1283 44.8614 41.4422 44.2317 40.554C43.602 39.6591 43.254 38.5985 43.1877 37.3722H46.2701C46.3297 38.108 46.5684 38.7211 46.986 39.2116C47.4102 39.6955 47.9505 40.0568 48.6067 40.2955C49.2696 40.5275 49.9954 40.6435 50.7843 40.6435C51.6526 40.6435 52.4249 40.5076 53.101 40.2358C53.7838 39.9574 54.3207 39.5729 54.7118 39.0824C55.1029 38.5852 55.2985 38.0052 55.2985 37.3423C55.2985 36.7391 55.1261 36.2453 54.7814 35.8608C54.4434 35.4763 53.9827 35.1581 53.3993 34.9062C52.8226 34.6544 52.1697 34.4323 51.4405 34.2401L49.0343 33.5838C47.4036 33.1397 46.111 32.4867 45.1564 31.625C44.2085 30.7633 43.7346 29.6231 43.7346 28.2045C43.7346 27.0312 44.0527 26.0071 44.6891 25.1321C45.3255 24.2571 46.1872 23.5777 47.2743 23.0938C48.3614 22.6032 49.5878 22.358 50.9533 22.358C52.3321 22.358 53.5485 22.5999 54.6025 23.0838C55.6631 23.5677 56.4983 24.2339 57.1081 25.0824C57.718 25.9242 58.0362 26.892 58.0627 27.9858H55.0996ZM62.0126 43V22.6364H69.2711C70.8554 22.6364 72.1679 22.9247 73.2086 23.5014C74.2493 24.0781 75.0282 24.8669 75.5453 25.8679C76.0623 26.8622 76.3208 27.9825 76.3208 29.2287C76.3208 30.4815 76.059 31.6084 75.5353 32.6094C75.0183 33.6037 74.2361 34.3925 73.1887 34.9759C72.148 35.5526 70.8388 35.8409 69.2612 35.8409H64.2697V33.2358H68.9828C69.9837 33.2358 70.7958 33.0634 71.4189 32.7188C72.042 32.3674 72.4993 31.8902 72.791 31.2869C73.0827 30.6837 73.2285 29.9976 73.2285 29.2287C73.2285 28.4598 73.0827 27.777 72.791 27.1804C72.4993 26.5838 72.0386 26.1165 71.4089 25.7784C70.7858 25.4403 69.9638 25.2713 68.943 25.2713H65.085V43H62.0126ZM21.6818 77.2884C20.9659 77.2884 20.3527 77.0365 19.8423 76.5327C19.3385 76.0289 19.09 75.419 19.0966 74.7031C19.09 74.0005 19.3385 73.4006 19.8423 72.9034C20.3527 72.3996 20.9659 72.1477 21.6818 72.1477C22.358 72.1477 22.9545 72.3996 23.4716 72.9034C23.9953 73.4006 24.2604 74.0005 24.267 74.7031C24.2604 75.1804 24.1345 75.6146 23.8892 76.0057C23.6506 76.3968 23.3357 76.7083 22.9446 76.9403C22.5601 77.1723 22.1392 77.2884 21.6818 77.2884ZM44.8097 56.6364V77H40.6335L32.5298 65.2472H32.4006V77H27.4787V56.6364H31.7145L39.7287 68.3693H39.8977V56.6364H44.8097ZM47.9045 77V56.6364H62.1033V60.6335H52.8263V64.8097H61.3775V68.8168H52.8263V73.0028H62.1033V77H47.9045ZM64.5195 60.6335V56.6364H81.7312V60.6335H75.5565V77H70.7042V60.6335H64.5195Z" fill="white"/>
</g>
<defs>
<clipPath id="clip0_216_331">
<rect width="100" height="100" rx="10" fill="white"/>
</clipPath>
</defs>
</svg>
