<svg width="100" height="100" viewBox="0 0 100 100" fill="none" xmlns="http://www.w3.org/2000/svg">
<path d="M64.9512 69.5122H34.4634C26.0444 69.5122 19.2195 76.3371 19.2195 84.7561C19.2195 93.1751 26.0444 100 34.4634 100H64.9512C73.3702 100 80.1951 93.1751 80.1951 84.7561C80.1951 76.3371 73.3702 69.5122 64.9512 69.5122Z" fill="#1AD1A5"/>
<path d="M49.7073 63.4146C67.2188 63.4146 81.4146 49.2188 81.4146 31.7073C81.4146 14.1958 67.2188 0 49.7073 0C32.1958 0 18 14.1958 18 31.7073C18 49.2188 32.1958 63.4146 49.7073 63.4146Z" fill="black" fill-opacity="0.3"/>
<path d="M49.7073 62.1951C66.5453 62.1951 80.1951 48.5453 80.1951 31.7073C80.1951 14.8694 66.5453 1.21951 49.7073 1.21951C32.8694 1.21951 19.2195 14.8694 19.2195 31.7073C19.2195 48.5453 32.8694 62.1951 49.7073 62.1951Z" fill="white"/>
<path d="M49.7073 45.3659C57.2507 45.3659 63.3659 39.2507 63.3659 31.7073C63.3659 24.1639 57.2507 18.0488 49.7073 18.0488C42.1639 18.0488 36.0488 24.1639 36.0488 31.7073C36.0488 39.2507 42.1639 45.3659 49.7073 45.3659Z" fill="#FF9903"/>
</svg>
