<svg width="100" height="100" viewBox="0 0 100 100" fill="none" xmlns="http://www.w3.org/2000/svg">
<g clip-path="url(#clip0_216_144)">
<path d="M100 0.000488281H0V100H100V0.000488281Z" fill="black"/>
<path d="M48.4352 40.4697C49.0812 39.505 49.7884 39.3823 50.3622 39.3823C50.9359 39.3823 51.8917 39.505 52.538 40.4697C57.6304 47.5554 66.0363 61.6705 72.237 72.0825C76.2807 78.8726 79.3865 84.0877 80.0237 84.7514C82.4157 87.2429 85.6962 85.6901 87.6024 82.8641C89.4791 80.0819 90 78.1282 90 76.044C90 74.6245 62.8114 23.4006 60.0733 19.1369C57.44 15.0359 56.5824 14 52.0755 14H48.7029C44.2095 14 43.5602 15.0359 40.9267 19.1369C38.1888 23.4006 11 74.6245 11 76.044C11 78.1282 11.521 80.0819 13.3977 82.8641C15.304 85.6901 18.5845 87.2429 20.9764 84.7514C21.6136 84.0877 24.7194 78.8726 28.7631 72.0825C34.9638 61.6705 43.3427 47.5554 48.4352 40.4697Z" fill="white"/>
</g>
<defs>
<clipPath id="clip0_216_144">
<rect width="100" height="100" rx="10" fill="white"/>
</clipPath>
</defs>
</svg>
