<svg width="100" height="100" viewBox="0 0 100 100" fill="none" xmlns="http://www.w3.org/2000/svg">
<path d="M93.2576 70.2253C93.2576 71.6322 92.0559 72.2477 90.649 72.8338C85.0216 75.2079 79.0132 77.4354 72.6237 77.4354C60.7534 77.4354 52.4882 64.3048 24.7908 78.1682V93.3504C24.7908 102.231 11.3964 102.202 11.3964 93.3504V20.0769C8.75856 18.0253 7 14.8306 7 11.1962C7 5.04122 12.0119 0 18.1962 0C24.3512 0 29.3924 5.01191 29.3924 11.1962C29.3924 14.7719 27.6924 17.996 25.0253 20.0476V26.2026C35.8991 22.6855 44.2229 16.1202 67.8463 25.2061C75.6426 28.5474 87.9819 20.6045 90.268 20.6045C91.88 20.6045 93.2869 21.8062 93.2869 23.213V70.2253H93.2576Z" fill="#538DD7"/>
</svg>
