<svg width="100" height="100" viewBox="0 0 100 100" fill="none" xmlns="http://www.w3.org/2000/svg">
<path d="M60.2724 0L71.8129 6.63645L26.365 32.7718L14.8246 26.1352L60.2724 0Z" fill="#0858CF"/>
<path d="M72.2782 8.02984L27.1165 33.9888L27.115 47.1227L72.2768 21.1638L72.2782 8.02984Z" fill="#0858CF"/>
<path d="M54.1173 33.6615L27.2114 49.1273L27.21 62.2616L54.1157 46.7957L54.1173 33.6615Z" fill="#0858CF"/>
<path d="M43.8031 54.4251L27.1477 63.9991L27.1462 77.1336L43.8017 67.5596L43.8031 54.4251Z" fill="#0858CF"/>
<path d="M14.0045 27.4015L25.6128 34.0738L25.6083 47.2108L14 40.5387L14.0045 27.4015Z" fill="#0858CF"/>
<path d="M14.1149 42.4493L25.5824 49.0406L25.578 62.1776L14.1105 55.5864L14.1149 42.4493Z" fill="#0858CF"/>
<path d="M14.1099 57.4064L25.5812 64L25.5765 78.0036L14.1051 71.41L14.1099 57.4064Z" fill="#0858CF"/>
<path d="M39.672 100L28.1315 93.3636L73.0636 67.5249L84.6039 74.1613L39.672 100Z" fill="#0858CF"/>
<path d="M27.2167 92.2277L72.3106 66.3077L72.312 53.1738L27.2181 79.0938L27.2167 92.2277Z" fill="#0858CF"/>
<path d="M45.3098 66.6351L72.2155 51.1693L72.217 38.0351L45.3112 53.5008L45.3098 66.6351Z" fill="#0858CF"/>
<path d="M55.6239 45.8714L72.2793 36.2975L72.2807 23.1631L55.6254 32.737L55.6239 45.8714Z" fill="#0858CF"/>
<path d="M85.424 72.9831L73.8158 66.3109L73.8202 53.1738L85.4286 59.8459L85.424 72.9831Z" fill="#0858CF"/>
<path d="M85.3144 57.8508L73.8469 51.2595L73.8513 38.1225L85.3188 44.7137L85.3144 57.8508Z" fill="#0858CF"/>
<path d="M85.3187 42.8937L73.8473 36.3001L73.8519 22.5482L85.3233 29.1417L85.3187 42.8937Z" fill="#0858CF"/>
</svg>
