<svg width="100" height="100" viewBox="0 0 100 100" fill="none" xmlns="http://www.w3.org/2000/svg">
<path d="M62.7129 10.3626V29.1828L83.8618 83.5014C83.8618 83.5014 90.3183 96.7674 71.8519 100H29.7244C29.7244 100 12.5126 98.204 16.6389 84.5756L38.8641 29.1835V10.3626H62.7129Z" fill="#009688"/>
<path d="M63.1593 8.17429H37.7892C35.7343 8.17429 34.063 6.34635 34.063 4.08787C34.063 1.82795 35.7336 0 37.7892 0H63.1593C65.2235 0 66.892 1.82795 66.892 4.08787C66.892 6.34635 65.2228 8.17429 63.1593 8.17429Z" fill="#004D40"/>
<path d="M56.4667 41.0919C59.1891 41.0919 61.4091 43.7519 61.4091 47.0461C61.4091 50.3258 59.1876 52.9924 56.4667 52.9924C53.7379 52.9924 51.5243 50.3258 51.5243 47.0461C51.5243 43.7505 53.7379 41.0919 56.4667 41.0919Z" fill="white"/>
<path d="M41.2942 56.5378C43.5951 56.5378 45.4603 54.2897 45.4603 51.5164C45.4603 48.7432 43.5951 46.495 41.2942 46.495C38.9933 46.495 37.1281 48.7432 37.1281 51.5164C37.1281 54.2897 38.9933 56.5378 41.2942 56.5378Z" fill="white"/>
<path d="M64.5938 27.9354V18.9841C64.5938 18.9841 75.9449 16.4814 81.6179 29.6844C81.6179 29.6844 72.7768 36.1257 64.5938 27.9354Z" fill="#004D40"/>
<path d="M36.792 27.9354V18.9841C36.792 18.9841 25.4394 16.4814 19.7693 29.6844C19.7693 29.6844 28.6017 36.1257 36.792 27.9354Z" fill="#004D40"/>
<path d="M71.4184 64.9784C52.9599 59.2524 37.4413 62.3263 29.8562 64.65L22.2074 83.0606C18.7639 94.0515 33.1425 95.496 33.1425 95.496H68.3279C83.7509 92.8904 78.3605 82.1981 78.3605 82.1981L71.4184 64.9784Z" fill="white"/>
<path d="M44.8167 71.8189C44.8167 73.8041 42.1488 75.4189 38.8625 75.4189C35.5763 75.4189 32.9163 73.8034 32.9163 71.8189C32.9163 69.8257 35.5763 68.2166 38.8625 68.2166C42.1502 68.2181 44.8167 69.8257 44.8167 71.8189Z" fill="#004D40"/>
<path d="M65.9913 71.8189C65.9913 73.8041 63.3233 75.4189 60.0451 75.4189C56.7494 75.4189 54.0909 73.8034 54.0909 71.8189C54.0909 69.8257 56.7494 68.2166 60.0451 68.2166C63.3248 68.2181 65.9913 69.8257 65.9913 71.8189Z" fill="#004D40"/>
</svg>
