<svg width="100" height="100" viewBox="0 0 100 100" fill="none" xmlns="http://www.w3.org/2000/svg">
<g clip-path="url(#clip0_216_238)">
<path d="M100 0.000488281H0V100H100V0.000488281Z" fill="black"/>
<path fill-rule="evenodd" clip-rule="evenodd" d="M55.8617 31.982V11H44.1383V31.982L50 40.016L55.8617 31.982Z" fill="white"/>
<path fill-rule="evenodd" clip-rule="evenodd" d="M44.1383 68.018V89H55.8617V68.018L50 59.984L44.1383 68.018Z" fill="white"/>
<path fill-rule="evenodd" clip-rule="evenodd" d="M55.8617 68.018L68.2104 85.022L77.7455 78.08L65.3186 61.154L55.8617 58.034V68.018Z" fill="#00F2E6"/>
<path fill-rule="evenodd" clip-rule="evenodd" d="M44.1383 31.982L31.7896 14.978L22.2545 21.92L34.6814 38.846L44.1383 41.966V31.982Z" fill="#00F2E6"/>
<path fill-rule="evenodd" clip-rule="evenodd" d="M34.6814 38.846L14.6733 32.372L11 43.526L31.008 50L40.5431 46.958L34.6814 38.846Z" fill="#00B9F1"/>
<path fill-rule="evenodd" clip-rule="evenodd" d="M59.4569 53.042L65.3186 61.154L85.3266 67.628L89 56.474L68.992 50L59.4569 53.042Z" fill="#00B9F1"/>
<path fill-rule="evenodd" clip-rule="evenodd" d="M68.992 50L89 43.526L85.3266 32.372L65.3186 38.846L59.4569 46.958L68.992 50Z" fill="#D63AFF"/>
<path fill-rule="evenodd" clip-rule="evenodd" d="M31.008 50L11 56.474L14.6733 67.628L34.6814 61.154L40.5431 53.042L31.008 50Z" fill="#D63AFF"/>
<path fill-rule="evenodd" clip-rule="evenodd" d="M34.6814 61.154L22.2545 78.08L31.7896 85.022L44.1383 68.018V58.034L34.6814 61.154Z" fill="#FB015B"/>
<path fill-rule="evenodd" clip-rule="evenodd" d="M65.3186 38.846L77.7455 21.92L68.2104 14.978L55.8617 31.982V41.966L65.3186 38.846Z" fill="#FB015B"/>
</g>
<defs>
<clipPath id="clip0_216_238">
<rect width="100" height="100" rx="10" fill="white"/>
</clipPath>
</defs>
</svg>
