<svg width="100" height="100" viewBox="0 0 100 100" fill="none" xmlns="http://www.w3.org/2000/svg">
<g clip-path="url(#clip0_216_168)">
<path fill-rule="evenodd" clip-rule="evenodd" d="M58.8812 -0.000488281C58.1581 -0.000488281 57.4866 0.154468 56.8668 0.361064C58.1839 1.23912 58.907 2.40126 59.2685 3.71834C59.2944 3.89911 59.346 4.02824 59.3719 4.20901C59.3978 4.36397 59.4235 4.51892 59.4235 4.67387C59.5268 6.94648 58.8295 7.23055 58.3388 8.57346C57.5899 10.3038 57.7965 12.1632 58.7004 13.661C58.7779 13.8418 58.8812 14.0484 59.0103 14.2292C58.0289 7.69541 63.478 6.71405 64.4852 4.67387C64.5627 2.89193 63.0907 1.70397 61.9285 0.877566C60.818 0.206114 59.8109 -0.000488281 58.8812 -0.000488281ZM67.0936 1.47155C66.9902 2.06553 67.0677 1.91057 67.0419 2.22048C67.0161 2.42708 67.0161 2.68533 66.9903 2.89193C66.9387 3.09853 66.887 3.30513 66.8095 3.51174C66.7579 3.71834 66.6804 3.92494 66.603 4.13154C66.4996 4.33815 66.4222 4.51891 66.3189 4.72552C66.2414 4.82886 66.1898 4.93211 66.1123 5.03542C66.0607 5.1129 66.0089 5.19037 65.9573 5.26785C65.8282 5.44863 65.6991 5.6294 65.5699 5.78435C65.415 5.9393 65.2859 6.12007 65.1051 6.24921V6.27506C64.9501 6.40419 64.7952 6.55914 64.6144 6.68826C64.0721 7.10146 63.4523 7.41137 62.8841 7.79875C62.7034 7.92787 62.5226 8.03118 62.3676 8.18613C62.1869 8.31525 62.0319 8.44437 61.877 8.59933C61.6962 8.75428 61.567 8.90923 61.4121 9.09001C61.283 9.24496 61.128 9.42573 61.0247 9.60651C60.8956 9.78728 60.7665 9.96806 60.6632 10.1489C60.5598 10.3555 60.4824 10.5362 60.3791 10.7428C60.3016 10.9494 60.2241 11.1302 60.1725 11.3368C60.095 11.5692 60.0434 11.7758 59.9917 11.9824C59.9659 12.0858 59.9659 12.2149 59.9401 12.3182C59.9142 12.4215 59.9142 12.5248 59.8885 12.6281C59.8885 12.8347 59.8626 13.0671 59.8626 13.2737C59.8626 13.4286 59.8626 13.5836 59.8885 13.7386C59.8885 13.9452 59.9144 14.1517 59.966 14.3842C59.9918 14.5908 60.0434 14.7974 60.0951 15.004C60.1726 15.2106 60.2242 15.4172 60.3017 15.6238C60.3533 15.7529 60.4308 15.882 60.4825 15.9853L54.5427 13.6869C53.5355 13.4028 52.5542 13.1446 51.547 12.9121C51.0046 12.783 50.4623 12.6539 49.92 12.5248C48.3705 12.2149 46.7952 11.9824 45.2198 11.8275C45.1682 11.8275 45.1423 11.8016 45.0907 11.8016C43.5412 11.6467 42.0175 11.5692 40.468 11.5692C39.3317 11.5692 38.1954 11.6208 37.0849 11.6983C35.5095 11.8017 33.9342 12.0082 32.3589 12.2665C31.9715 12.3181 31.5841 12.3956 31.1967 12.4731C30.3962 12.628 29.6214 12.8088 28.8725 12.9896C28.4851 13.0929 28.0977 13.1962 27.7103 13.2995C27.323 13.4544 26.9614 13.6352 26.5999 13.7902C26.3158 13.9193 26.0317 14.0484 25.7476 14.1776C25.696 14.2034 25.6443 14.2034 25.6185 14.2292C25.3603 14.3583 25.1278 14.4616 24.8954 14.5907C24.8179 14.6166 24.7663 14.6423 24.7146 14.6682C24.4306 14.7973 24.1465 14.9523 23.9141 15.0814C23.7333 15.1589 23.5525 15.2622 23.3976 15.3396C23.3201 15.3913 23.2168 15.443 23.1651 15.4688C22.9327 15.5979 22.7003 15.727 22.4937 15.8561C22.2612 15.9853 22.0546 16.1144 21.8739 16.2435C21.6931 16.3727 21.5123 16.4759 21.3574 16.6051C21.3315 16.6309 21.3057 16.6309 21.2799 16.6567C21.1249 16.76 20.9442 16.8891 20.7892 17.0182C20.7892 17.0182 20.7633 17.0441 20.7376 17.0699C20.6085 17.1732 20.4793 17.2764 20.3502 17.3797C20.2986 17.4056 20.2469 17.4572 20.1953 17.4831C20.0661 17.5864 19.937 17.7155 19.8079 17.8188C19.782 17.8704 19.7304 17.8963 19.7046 17.9222C19.5496 18.0771 19.3947 18.2062 19.2397 18.3612C19.2138 18.3612 19.2138 18.387 19.1881 18.4128C19.0331 18.5419 18.8782 18.6969 18.7232 18.8518C18.6974 18.8777 18.6974 18.9034 18.6716 18.9034C18.5425 19.0326 18.4134 19.1617 18.2842 19.3166C18.2326 19.3682 18.1551 19.42 18.1035 19.4716C17.9744 19.6265 17.8194 19.7815 17.6644 19.9364C17.6386 19.988 17.587 20.0139 17.5611 20.0656C17.3545 20.2722 17.1737 20.4788 16.9671 20.6854C16.9413 20.7112 16.9155 20.737 16.8897 20.7628C16.4764 21.2019 16.0374 21.6409 15.5726 22.0283C15.1077 22.4415 14.617 22.8289 14.1264 23.1646C13.6099 23.5261 13.1192 23.836 12.5768 24.1459C12.0603 24.43 11.518 24.6883 10.9499 24.9207C10.4075 25.1531 9.83938 25.3597 9.27123 25.5405C8.18657 25.7729 7.07609 26.2119 6.12056 26.2894C5.91396 26.2894 5.68153 26.341 5.47493 26.3669C5.2425 26.4185 5.0359 26.4702 4.82931 26.5219C4.62271 26.5993 4.4161 26.6768 4.2095 26.7543C4.0029 26.8317 3.7963 26.9351 3.5897 27.0384C3.40892 27.1675 3.20232 27.2708 3.02154 27.3999C2.84077 27.529 2.65999 27.684 2.50504 27.8389C2.32427 27.9681 2.14349 28.1488 1.98853 28.3038C1.83358 28.4846 1.67863 28.6395 1.54951 28.8203C1.42038 29.0269 1.26543 29.2077 1.16213 29.4143C1.033 29.595 0.903882 29.8016 0.800576 30.0082C0.697234 30.2407 0.593977 30.4473 0.516501 30.6797C0.439025 30.8863 0.361549 31.1187 0.284073 31.3512C0.232463 31.5578 0.180732 31.7644 0.154951 31.9709C0.154951 31.9968 0.129086 32.0226 0.129086 32.0484C0.0774755 32.2809 0.0774754 32.5908 0.0516095 32.7457C0.0257446 32.9265 0 33.0814 0 33.2622C0 33.3656 8.00937e-08 33.4946 0.025865 33.5979C0.0517299 33.7787 0.0774744 33.9337 0.129207 34.0886C0.180817 34.2436 0.232549 34.3985 0.309976 34.5535V34.5793C0.387452 34.7343 0.490757 34.8892 0.594051 35.0442C0.697393 35.1991 0.800662 35.3541 0.929784 35.5091C1.05891 35.6382 1.21386 35.7931 1.36881 35.9223C1.52376 36.0772 1.67872 36.2063 1.85948 36.3354C2.47929 36.8778 2.63424 37.0586 3.43482 37.4718C3.56394 37.5492 3.69308 37.6009 3.84803 37.6784C3.8739 37.6784 3.89964 37.7042 3.92551 37.7042C3.92551 37.7558 3.92551 37.7817 3.95138 37.8334C3.97724 38.04 4.02885 38.2466 4.0805 38.4532C4.13211 38.6856 4.20963 38.8922 4.28711 39.073C4.36459 39.2279 4.41623 39.3829 4.49371 39.5378C4.51957 39.5894 4.54532 39.6412 4.57119 39.6669C4.67453 39.8735 4.77778 40.0543 4.88108 40.2351C5.01021 40.4159 5.13933 40.5966 5.26846 40.7774C5.39758 40.9324 5.55253 41.1132 5.70748 41.2681C5.86244 41.4231 6.01739 41.5522 6.19817 41.7071C6.19817 41.7071 6.22404 41.733 6.24978 41.733C6.40473 41.8622 6.55968 41.9913 6.71464 42.0946C6.89541 42.2237 7.07619 42.327 7.28279 42.4303C7.46357 42.5336 7.67017 42.6369 7.87676 42.7144C8.03172 42.7919 8.21248 42.8435 8.39327 42.8952C8.41914 42.921 8.44488 42.9211 8.49661 42.9468C8.59995 42.9727 8.72902 42.9984 8.83233 43.0242C8.75485 44.4188 8.72899 45.7359 8.93567 46.2007C9.16809 46.7172 10.3044 45.1419 11.4407 43.3342C11.2858 45.1161 11.1825 47.2079 11.4407 47.8277C11.7248 48.4733 13.2743 46.459 14.6172 44.238C32.9272 40.0027 49.6361 52.657 51.3922 70.528C51.0565 67.7389 47.6217 66.1894 46.0464 66.5768C45.2717 68.4878 43.9546 70.9412 41.8369 72.4649C42.0177 70.7604 41.9403 69.0043 41.5787 67.2999C41.0105 69.6758 39.9 71.8968 38.3763 73.8078C35.923 73.9886 33.4696 72.8006 32.1783 71.0187C32.075 70.9412 32.0492 70.7863 31.9717 70.683C31.8942 70.5022 31.8167 70.3214 31.7651 70.1406C31.6876 69.9599 31.636 69.7791 31.6101 69.5983C31.5843 69.4175 31.5843 69.2368 31.5843 69.0302C31.5843 68.901 31.5843 68.7719 31.5843 68.6428C31.6101 68.462 31.6618 68.2812 31.7134 68.1005C31.765 67.9197 31.8167 67.7389 31.8942 67.5581C31.9975 67.3774 32.075 67.1966 32.2041 67.0158C32.6431 65.7762 32.6431 64.769 31.8425 64.175C31.6876 64.0717 31.5326 63.9943 31.3518 63.9168C31.2485 63.8909 31.1194 63.8393 31.0161 63.8134C30.9387 63.7876 30.887 63.7618 30.8095 63.736C30.6287 63.6844 30.448 63.6326 30.2672 63.6068C30.0864 63.5552 29.9056 63.5294 29.7249 63.5294C29.5441 63.5035 29.3375 63.4778 29.1567 63.4778C29.0276 63.4778 28.8985 63.5036 28.7693 63.5036C28.5627 63.5036 28.382 63.5295 28.2012 63.5811C28.0204 63.607 27.8396 63.6327 27.6589 63.6844C27.4781 63.736 27.2973 63.7878 27.1165 63.8652C26.9358 63.9427 26.7808 64.0202 26.6 64.0976C26.4451 64.1751 26.2901 64.2784 26.1093 64.3559C20.0921 68.2813 23.6818 77.4751 27.788 80.135C26.2385 80.4191 24.6631 80.7549 24.2241 81.0906C24.1982 81.1164 24.1725 81.1422 24.1725 81.1422C25.283 81.8136 26.4451 82.3818 27.6589 82.8725C29.3117 83.4148 31.0678 83.9055 31.8426 84.1121V84.1379C33.9861 84.577 36.1554 84.7319 38.3505 84.6028C49.7911 83.8022 59.1656 75.0991 60.8701 63.6328C60.9217 63.8652 60.9734 64.0718 61.025 64.3042C61.1025 64.7691 61.2058 65.2598 61.2574 65.7504V65.7763C61.309 66.0088 61.3349 66.2412 61.3608 66.4478V66.5511C61.3867 66.7835 61.4124 67.016 61.4124 67.2226C61.4382 67.5067 61.464 67.7907 61.464 68.0748V68.488C61.464 68.6171 61.4898 68.7721 61.4898 68.9012C61.4898 69.0562 61.464 69.2111 61.464 69.3661V69.7276C61.464 69.9084 61.4381 70.0633 61.4381 70.2441C61.4381 70.3474 61.4381 70.4507 61.4122 70.5798C61.4122 70.7606 61.3864 70.9414 61.3864 71.148C61.3605 71.2255 61.3605 71.303 61.3605 71.3804C61.3346 71.587 61.3089 71.7678 61.283 71.9744C61.283 72.0519 61.283 72.1294 61.2571 72.2068C61.2312 72.4651 61.1797 72.6975 61.1538 72.9558V72.9817V73.0075C61.1022 73.2399 61.0505 73.4982 60.9988 73.7306V73.8081C60.9472 74.0405 60.8955 74.2729 60.8439 74.5054C60.8439 74.5313 60.8181 74.5828 60.8181 74.6087C60.7664 74.8411 60.7147 75.0736 60.6373 75.306V75.3835C60.5598 75.6417 60.4823 75.8741 60.4307 76.1066C60.4048 76.1324 60.4048 76.1582 60.4048 76.1582C60.3273 76.4164 60.2499 76.6747 60.1724 76.9329C60.0691 77.1912 59.9916 77.4236 59.8883 77.6819C59.785 77.9401 59.7075 78.1984 59.6042 78.4308C59.5009 78.689 59.3976 78.9215 59.2943 79.1797H59.2684C59.1651 79.4121 59.0618 79.6704 58.9327 79.9028C58.9068 79.9803 58.8811 80.032 58.8552 80.0836C58.8294 80.1095 58.8294 80.1352 58.8036 80.1611C57.125 83.5442 54.6458 86.5141 51.5468 88.8383C51.3402 88.9675 51.1335 89.1224 50.927 89.2774C50.8753 89.329 50.7978 89.3548 50.7462 89.4065C50.5654 89.5356 50.3846 89.6647 50.178 89.7939L50.2555 89.9488H50.2814C50.6429 89.8972 51.0045 89.8455 51.366 89.7939H51.3919C52.0633 89.6905 52.7348 89.5614 53.4062 89.4323C53.587 89.4064 53.7936 89.3548 53.9744 89.3032C54.1035 89.2773 54.2068 89.2516 54.3359 89.2257C54.5167 89.1998 54.6975 89.1482 54.8783 89.1224C55.0332 89.0707 55.1882 89.0449 55.3431 88.9932C57.9256 88.3734 60.4307 87.5212 62.8324 86.514C58.7262 92.1181 53.2255 96.6375 46.795 99.6074C49.7649 99.4008 52.7348 98.9101 55.6014 98.0837C66.0089 95.0105 74.7636 88.0119 80.0061 78.5857C78.9473 84.5513 76.5714 90.2328 73.0592 95.1913C75.5642 93.5384 77.8626 91.6274 79.9545 89.4581C85.7393 83.415 89.5356 75.7449 90.8269 67.5067C91.7049 71.5871 91.9632 75.7966 91.5758 79.9544C110.222 53.9485 93.1253 26.987 85.9717 19.8851C85.9459 19.8335 85.9201 19.8076 85.9201 19.756C85.8942 19.7819 85.8942 19.7819 85.8942 19.8076C85.8942 19.7818 85.8942 19.7818 85.8684 19.756C85.8684 20.0659 85.8425 20.3758 85.8168 20.6857C85.7393 21.2797 85.6618 21.8478 85.5585 22.416C85.4294 22.9841 85.2744 23.5523 85.1195 24.1205C84.9387 24.6628 84.7321 25.2309 84.4997 25.7733C84.2673 26.2898 84.009 26.8321 83.7249 27.3486C83.4409 27.8393 83.131 28.3558 82.7952 28.8206C82.4595 29.3113 82.098 29.7762 81.7364 30.2152C81.349 30.68 80.9358 31.0932 80.5226 31.5064C80.2644 31.7389 80.0319 31.9455 79.7737 32.1521C79.5671 32.3328 79.3863 32.4878 79.1797 32.6686C78.7149 33.0301 78.25 33.3658 77.7335 33.6758C77.2428 33.9857 76.7263 34.2956 76.2098 34.5538C75.6675 34.8121 75.1252 35.0445 74.5828 35.2769C74.0405 35.4835 73.4724 35.6643 72.9042 35.8192C72.336 35.9742 71.7421 36.1033 71.1739 36.2066C70.5799 36.31 69.986 36.3616 69.4178 36.4132C69.0046 36.4391 68.5914 36.4648 68.1782 36.4648C67.5842 36.4648 66.9902 36.4132 66.4221 36.3615C65.8281 36.3099 65.2341 36.2324 64.666 36.1032C64.072 35.9999 63.5038 35.845 62.9357 35.6642H62.9098C63.478 35.6126 64.0461 35.5609 64.6143 35.4576C65.2083 35.3543 65.7764 35.2252 66.3446 35.0702C66.9127 34.9153 67.4809 34.7345 68.0232 34.5279C68.5914 34.3213 69.1337 34.0631 69.6502 33.8048C70.1925 33.5465 70.6832 33.2625 71.1997 32.9526C71.6904 32.6168 72.1811 32.2811 72.6459 31.9196C73.1108 31.558 73.5498 31.1706 73.963 30.7574C74.402 30.37 74.7894 29.931 75.1768 29.492C75.5641 29.0272 75.9257 28.5623 76.2614 28.0974C76.313 28.02 76.3648 27.9167 76.4164 27.8392C76.6746 27.426 76.9329 27.0128 77.1653 26.5996C77.4494 26.0831 77.7076 25.5666 77.9401 25.0242C78.1725 24.4819 78.3791 23.9396 78.5599 23.3714C78.7406 22.8291 78.8698 22.261 78.9989 21.6928C79.1023 21.0988 79.2055 20.5307 79.2572 19.9625C79.3088 19.3685 79.3605 18.7746 79.3605 18.2064C79.3605 17.7932 79.3346 17.38 79.3089 16.9668C79.2573 16.3728 79.1798 15.8047 79.1023 15.2365C78.9989 14.6425 78.8699 14.0744 78.7149 13.5062C78.5341 12.9639 78.3534 12.3957 78.1468 11.8534C77.9401 11.3111 77.6819 10.7688 77.4236 10.2523C77.1396 9.73574 76.8555 9.21923 76.5456 8.72856C76.2099 8.23789 75.8741 7.77303 75.5126 7.30817C75.1252 6.86915 74.7378 6.43012 74.3246 5.99109C74.118 5.7845 73.8856 5.55207 73.6532 5.34547C72.491 4.44158 71.2773 3.58935 70.0635 2.8146C69.8827 2.71126 69.7278 2.63382 69.547 2.55634C68.6947 2.01402 67.8941 1.72979 67.0936 1.47155Z" fill="#E0234E"/>
</g>
<defs>
<clipPath id="clip0_216_168">
<rect width="100" height="100" fill="white"/>
</clipPath>
</defs>
</svg>
