<svg width="100" height="100" viewBox="0 0 100 100" fill="none" xmlns="http://www.w3.org/2000/svg">
<g clip-path="url(#clip0_216_173)">
<path d="M50 99.9995C77.6142 99.9995 100 77.6138 100 49.9995C100 22.3853 77.6142 -0.000488281 50 -0.000488281C22.3858 -0.000488281 0 22.3853 0 49.9995C0 77.6138 22.3858 99.9995 50 99.9995Z" fill="black"/>
<path d="M83.06 87.5109L38.4122 29.9995H30V69.9829H36.7298V38.5459L77.7773 91.5802C79.6294 90.3404 81.394 88.9803 83.06 87.5109Z" fill="url(#paint0_linear_216_173)"/>
<path d="M70.5558 29.9995H63.8892V69.9995H70.5558V29.9995Z" fill="url(#paint1_linear_216_173)"/>
</g>
<defs>
<linearGradient id="paint0_linear_216_173" x1="60.5555" y1="64.7218" x2="80.2778" y2="89.1662" gradientUnits="userSpaceOnUse">
<stop stop-color="white"/>
<stop offset="1" stop-color="white" stop-opacity="0"/>
</linearGradient>
<linearGradient id="paint1_linear_216_173" x1="67.2225" y1="29.9995" x2="67.1109" y2="59.3747" gradientUnits="userSpaceOnUse">
<stop stop-color="white"/>
<stop offset="1" stop-color="white" stop-opacity="0"/>
</linearGradient>
<clipPath id="clip0_216_173">
<rect width="100" height="100" fill="white"/>
</clipPath>
</defs>
</svg>
