<svg width="100" height="100" viewBox="0 0 100 100" fill="none" xmlns="http://www.w3.org/2000/svg">
<g clip-path="url(#clip0_216_275)">
<path d="M100 0.000488281H0V100H100V0.000488281Z" fill="black"/>
<path d="M50.5844 21H62.4224V57.4998C62.4224 61.598 61.4473 65.1839 59.497 68.2576C57.5651 71.3312 54.8584 73.728 51.3772 75.4478C47.896 77.1493 43.8407 78 39.2112 78C34.5635 78 30.499 77.1493 27.0178 75.4478C23.5366 73.728 20.83 71.3312 18.898 68.2576C16.966 65.1839 16 61.598 16 57.4998V21H27.838V56.4844C27.838 58.6249 28.3027 60.5277 29.2323 62.1926C30.1801 63.8575 31.5106 65.1656 33.2238 66.117C34.9371 67.0684 36.9329 67.5441 39.2112 67.5441C41.5077 67.5441 43.5035 67.0684 45.1985 66.117C46.9118 65.1656 48.2332 63.8575 49.1627 62.1926C50.1105 60.5277 50.5844 58.6249 50.5844 56.4844V21Z" fill="white"/>
<path d="M84 21V77.2041H72.162V21H84Z" fill="white"/>
</g>
<defs>
<clipPath id="clip0_216_275">
<rect width="100" height="100" rx="10" fill="white"/>
</clipPath>
</defs>
</svg>
