<svg width="100" height="100" viewBox="0 0 100 100" fill="none" xmlns="http://www.w3.org/2000/svg">
<g clip-path="url(#clip0_216_231)">
<path d="M49.9992 97.6134C23.7438 97.6134 2.38203 76.254 2.38203 49.997C2.38281 23.7407 23.7437 2.38135 50 2.38135C76.2563 2.38135 97.6172 23.7423 97.6172 49.9985C97.6172 76.254 76.2555 97.6126 50 97.6126L49.9992 97.6134Z" fill="#85EA2D"/>
<path d="M31.4844 33.8369C31.3297 35.5479 31.5406 37.3166 31.4273 39.0463C31.2922 40.7783 31.0805 42.4893 30.7336 44.1994C30.2531 46.6416 28.7336 48.4877 26.6398 50.026C30.7164 52.6791 31.1766 56.7932 31.4461 60.9658C31.5805 63.2158 31.5227 65.4854 31.7539 67.7143C31.9266 69.4447 32.5992 69.8877 34.3883 69.9439C35.1187 69.9635 35.868 69.9439 36.7148 69.9439V75.2893C31.4273 76.1924 27.0633 74.6939 25.9852 70.2143C25.6308 68.5683 25.4124 66.896 25.332 65.2143C25.2164 63.4275 25.4078 61.6385 25.2742 59.8518C24.8898 54.9479 24.2547 53.2947 19.5648 53.0635V46.9697C19.9094 46.8916 20.2367 46.8338 20.582 46.7955C23.1586 46.6611 24.2547 45.8721 24.8117 43.3346C25.0791 41.9068 25.24 40.4612 25.293 39.0096C25.4859 36.2213 25.4086 33.3768 25.8891 30.608C26.5609 26.6283 29.0219 24.7049 33.1187 24.4736C34.2719 24.4158 35.4453 24.4736 36.7719 24.4736V29.9346C36.2141 29.9736 35.7328 30.0494 35.2336 30.0494C31.907 29.9338 31.7344 31.0682 31.4844 33.8369ZM37.8867 46.4877H37.8094C35.8859 46.3916 34.2328 47.8908 34.1359 49.8143C34.0406 51.7557 35.5398 53.4104 37.4633 53.5049H37.6938C39.5969 53.6205 41.2305 52.158 41.3469 50.2549V50.0635C41.3859 48.1213 39.8289 46.5268 37.8867 46.4877ZM49.9414 46.4877C48.0773 46.4299 46.5195 47.8908 46.4617 49.7369C46.4617 49.8533 46.4617 49.9486 46.4805 50.0635C46.4805 52.1604 47.9031 53.5057 50.057 53.5057C52.1719 53.5057 53.4992 52.1213 53.4992 49.9486C53.4797 47.8533 52.075 46.4682 49.9414 46.4877ZM62.2859 46.4877C61.3418 46.4708 60.429 46.8265 59.7453 47.4778C59.0615 48.1291 58.6618 49.0235 58.6328 49.9674C58.6315 50.4323 58.7221 50.8929 58.8994 51.3227C59.0767 51.7525 59.3372 52.143 59.6659 52.4718C59.9947 52.8005 60.3852 53.061 60.815 53.2383C61.2448 53.4156 61.7054 53.5062 62.1703 53.5049H62.2094C63.9781 53.8127 65.7664 52.1018 65.882 50.0447C65.9773 48.1408 64.2484 46.4877 62.2859 46.4877ZM79.225 46.776C76.9945 46.6799 75.8781 45.9299 75.3219 43.815C74.9764 42.4609 74.7642 41.0761 74.6883 39.6807C74.5336 37.1041 74.5523 34.5088 74.3797 31.9322C73.9766 25.8182 69.5539 23.6846 63.132 24.7408V30.0471C64.1508 30.0471 64.9391 30.0471 65.7273 30.0666C67.093 30.0854 68.1312 30.6057 68.2656 32.1244C68.4 33.5088 68.4 34.9119 68.5344 36.3158C68.8047 39.1049 68.9578 41.9307 69.4383 44.6799C69.8617 46.9486 71.4195 48.6408 73.3602 50.0244C69.9578 52.3127 68.957 55.5814 68.7844 59.2541C68.6891 61.7721 68.6313 64.3104 68.4969 66.8486C68.3813 69.1557 67.5742 69.9057 65.2469 69.9635C64.5945 69.9822 63.9594 70.04 63.2289 70.0791V75.5197C64.5945 75.5197 65.8437 75.5979 67.093 75.5197C70.9766 75.2893 73.3227 73.4057 74.093 69.6361C74.4187 67.5596 74.6102 65.4643 74.6687 63.3682C74.8023 61.4463 74.7844 59.5041 74.9766 57.601C75.2648 54.6205 76.6297 53.3908 79.6094 53.1979C79.8914 53.1634 80.169 53.0992 80.4375 53.0064V46.9119C79.9375 46.8541 79.5906 46.7955 79.225 46.776ZM50 4.76582C74.982 4.76582 95.2344 25.0158 95.2344 49.9986C95.2344 74.9807 74.982 95.2322 50 95.2322C25.0188 95.2322 4.76719 74.9807 4.76719 49.9979C4.76719 25.0182 25.0188 4.76582 50 4.76582ZM50 0.000976583C22.4297 0.000195333 0 22.4299 0 50.0002C0 77.5689 22.4297 99.9986 50 99.9986C77.5695 99.9986 100 77.5689 100 49.9986C100 22.4283 77.5695 0.00175783 50 0.00175783V0.000976583Z" fill="#173647"/>
</g>
<defs>
<clipPath id="clip0_216_231">
<rect width="100" height="100" fill="white"/>
</clipPath>
</defs>
</svg>
