<svg width="100" height="100" viewBox="0 0 100 100" fill="none" xmlns="http://www.w3.org/2000/svg">
<path d="M98.4716 59.9027C97.8902 58.137 96.3673 56.9072 94.3978 56.6121C93.4691 56.4731 92.4055 56.5323 91.1469 56.7925C88.9532 57.2464 87.3257 57.4192 86.138 57.4526C90.6212 49.8623 94.2667 41.2068 96.3654 33.059C99.759 19.8842 97.9455 13.8823 95.8264 11.1675C90.2183 3.98172 82.0361 0.121465 72.1652 0.00334804C66.8994 -0.0612175 62.2768 0.981325 59.8653 1.73104C57.62 1.33378 55.2059 1.11198 52.6728 1.07096C47.9244 0.994998 43.729 2.03298 40.1442 4.1663C38.1595 3.4933 34.9742 2.54457 31.2958 1.93917C22.6444 0.514935 15.6716 1.6247 10.5714 5.23771C4.3955 9.61221 1.53253 17.2127 2.06202 27.828C2.23018 31.1984 4.1103 41.4529 7.0706 51.178C8.77195 56.7678 10.5862 61.4097 12.4629 64.976C15.1243 70.033 17.9722 73.011 21.1692 74.0805C22.961 74.679 26.2168 75.0983 29.6411 72.2385C30.0751 72.7656 30.6542 73.2894 31.4227 73.7759C32.3987 74.3931 33.5922 74.8974 34.7841 75.1963C39.0795 76.273 43.1029 76.0038 46.5356 74.4945C46.5568 75.1067 46.573 75.6916 46.5867 76.1967C46.6094 77.0159 46.6321 77.8192 46.6621 78.5704C46.8654 83.6498 47.2101 87.5994 48.2312 90.3628C48.2873 90.5147 48.3626 90.7464 48.4422 90.9921C48.9516 92.5561 49.8034 95.1744 51.9706 97.2249C54.2147 99.3491 56.9292 100 59.4153 100C60.6622 100 61.8518 99.8364 62.8953 99.6123C66.6146 98.8129 70.8388 97.5952 73.8945 93.2321C76.7836 89.1075 78.188 82.8952 78.4422 73.1067C78.4751 72.8298 78.5054 72.5655 78.5346 72.3137L78.5952 71.7964L79.2758 71.8564L79.4512 71.8682C83.2394 72.0414 87.8715 71.2358 90.7163 69.9107C92.9642 68.8647 100.168 65.0512 98.4716 59.9027Z" fill="black"/>
<path d="M91.9943 60.9038C80.7303 63.2339 79.9558 59.4097 79.9558 59.4097C91.8485 41.7138 96.8204 19.2514 92.5303 13.7538C80.8254 -1.24249 60.5641 5.84986 60.2259 6.03369L60.1172 6.05343C57.8917 5.59008 55.4014 5.31434 52.6021 5.26838C47.5056 5.18483 43.6393 6.60832 40.7055 8.83925C40.7055 8.83925 4.56141 -6.09211 6.24268 27.618C6.60022 34.7893 16.4932 81.8808 28.2927 67.657C32.6056 62.4557 36.773 58.058 36.773 58.058C38.8424 59.4366 41.3202 60.14 43.9177 59.8875L44.1196 59.7158C44.0567 60.3614 44.0855 60.993 44.2002 61.7409C41.1604 65.1465 42.0539 65.7443 35.9772 66.9988C29.8282 68.2696 33.4403 70.5317 35.7988 71.1234C38.658 71.8401 45.2725 72.8556 49.7417 66.5818L49.5637 67.2977C50.7545 68.2544 51.5908 73.5199 51.4507 78.2936C51.3105 83.0669 51.217 86.3442 52.1551 88.904C53.0941 91.4638 54.0292 97.2235 62.0178 95.5071C68.6925 94.0727 72.1516 90.3556 72.633 84.155C72.9743 79.7471 73.7473 80.3988 73.7958 76.4576L74.4158 74.5921C75.1305 68.6167 74.5294 66.6889 78.6415 67.5856L79.6414 67.6737C82.6676 67.8116 86.6293 67.1853 88.9545 66.1017C93.9608 63.772 96.9309 59.8818 91.9943 60.9038Z" fill="#336791"/>
<path d="M42.8212 30.825C41.8062 30.6833 40.8869 30.8143 40.4218 31.1675C40.1605 31.3662 40.0794 31.5963 40.0575 31.7547C39.9991 32.1744 40.2923 32.6385 40.4726 32.8778C40.9824 33.5553 41.727 34.0209 42.4641 34.1235C42.5709 34.1387 42.6773 34.1455 42.783 34.1455C44.012 34.1455 45.1297 33.1858 45.2282 32.4774C45.3513 31.5902 44.0669 30.9986 42.8212 30.825ZM76.4482 30.8531C76.3512 30.1577 75.1172 29.9594 73.9461 30.1227C72.7766 30.286 71.6426 30.8155 71.7373 31.5124C71.813 32.0544 72.789 32.9795 73.9442 32.9795C74.042 32.9795 74.1404 32.9731 74.2397 32.959C75.0108 32.8519 75.5766 32.3609 75.8456 32.0779C76.2546 31.6465 76.4917 31.1656 76.4482 30.8531Z" fill="white"/>
<path d="M95.7425 60.6393C95.313 59.3369 93.9306 58.918 91.6339 59.3935C84.8145 60.8049 82.3723 59.8273 81.5705 59.2352C86.8711 51.1379 91.2316 41.3497 93.584 32.2175C94.6983 27.8916 95.3138 23.8741 95.3642 20.5995C95.4198 17.0054 94.8093 14.3643 93.5503 12.7509C88.4743 6.24692 81.0243 2.7581 72.0063 2.66239C65.8065 2.5925 60.5684 4.18348 59.5529 4.63088C57.4145 4.09764 55.0833 3.77026 52.5453 3.72848C47.8912 3.6529 43.8681 4.77026 40.5374 7.04791C39.0906 6.50784 35.3515 5.2207 30.7789 4.482C22.8736 3.20588 16.5917 4.17284 12.1088 7.35745C6.75968 11.1577 4.29022 17.9507 4.76858 27.5475C4.92955 30.7761 6.76422 40.7086 9.65939 50.2207C13.4704 62.7403 17.6131 69.8277 21.9718 71.2858C22.482 71.4563 23.0702 71.5756 23.719 71.5756C25.309 71.5756 27.2584 70.857 29.2866 68.4118C31.7604 65.436 34.3195 62.5323 36.9605 59.7046C38.6739 60.6267 40.5563 61.1417 42.4815 61.1934C42.4853 61.2439 42.4902 61.2944 42.4948 61.3446C42.1634 61.7408 41.8389 62.1428 41.5214 62.5504C40.1874 64.2485 39.9098 64.6021 35.6159 65.4885C34.3944 65.7415 31.1504 66.4118 31.1027 68.6921C31.0512 71.1836 34.9376 72.23 35.3803 72.3409C36.9234 72.7282 38.41 72.9193 39.8276 72.9193C43.2754 72.9193 46.3096 71.7829 48.7343 69.5843C48.6597 78.4662 49.029 87.2183 50.0925 89.8849C50.9636 92.0679 53.0915 97.4029 59.8128 97.4026C60.799 97.4026 61.8845 97.2875 63.0787 97.0308C70.0936 95.523 73.1399 92.4139 74.3181 85.5597C74.9488 81.8966 76.0309 73.1494 76.5399 68.4574C77.614 68.7935 78.9968 68.9474 80.4918 68.947C83.6097 68.947 87.2074 68.2827 89.4636 67.2326C91.9982 66.0522 96.572 63.1558 95.7425 60.6393ZM79.0374 28.9337C79.0143 30.3189 78.8241 31.5764 78.6227 32.889C78.4056 34.3007 78.1814 35.7602 78.125 37.532C78.0693 39.2563 78.284 41.0489 78.4916 42.7827C78.9113 46.2844 79.3419 49.8895 77.675 53.4467C77.3981 52.9547 77.1515 52.4462 76.9365 51.9241C76.7293 51.4204 76.2793 50.6115 75.6563 49.4918C73.2327 45.1333 67.5571 34.9266 70.4625 30.7617C71.3279 29.5221 73.5243 28.2475 79.0374 28.9337ZM72.3547 5.46719C80.435 5.64608 86.8268 8.67725 91.3521 14.476C94.8229 18.9238 91.001 39.1621 79.9365 56.6218C79.8253 56.4799 79.7134 56.3385 79.601 56.1975L79.4608 56.0221C82.32 51.2871 81.761 46.6023 81.2633 42.4489C81.0588 40.7443 80.8656 39.1344 80.9148 37.622C80.9656 36.0193 81.1769 34.6444 81.3815 33.3151C81.6326 31.677 81.8882 29.982 81.8178 27.9839C81.8704 27.7742 81.8916 27.5266 81.864 27.2326C81.6841 25.3166 79.5025 19.582 75.056 14.3917C72.6236 11.5527 69.0766 8.37569 64.2335 6.23287C66.3167 5.7999 69.1653 5.39617 72.3547 5.46719ZM27.1402 66.6222C24.9056 69.3165 23.3626 68.8 22.8551 68.6306C19.5486 67.5246 15.7118 60.5166 12.3292 49.4037C9.40222 39.788 7.69178 30.1187 7.55619 27.4073C7.12896 18.8323 9.20186 12.8561 13.7177 9.64459C21.067 4.41857 33.1499 7.54659 38.0051 9.133C37.9354 9.20213 37.8627 9.26669 37.7937 9.33695C29.8263 17.4054 30.0153 31.1905 30.035 32.0333C30.0343 32.3584 30.0615 32.8187 30.0987 33.4518C30.2358 35.7705 30.491 40.0858 29.8093 44.9726C29.176 49.5139 30.5721 53.9586 33.6388 57.1675C33.9536 57.4962 34.2844 57.8091 34.63 58.1049C33.265 59.5709 30.2983 62.8129 27.1402 66.6222ZM35.6542 55.231C33.1824 52.6445 32.0598 49.0471 32.5738 45.36C33.2934 40.1978 33.0279 35.7017 32.8851 33.2862C32.8651 32.9482 32.8472 32.652 32.837 32.4184C34.0009 31.3834 39.3947 28.4856 43.2413 29.3694C44.9964 29.7723 46.066 30.971 46.5107 33.0325C48.812 43.706 46.8152 48.1546 45.2108 51.7296C44.8801 52.466 44.5677 53.1622 44.301 53.8823L44.0942 54.4391C43.5708 55.8466 43.0837 57.1554 42.7819 58.3981C40.1541 58.3905 37.5979 57.2652 35.6542 55.231ZM36.0575 69.6253C35.2902 69.4331 34.6001 69.0993 34.1952 68.8224C34.5334 68.6629 35.1353 68.4456 36.1791 68.2299C41.2305 67.1874 42.0107 66.4513 43.7144 64.2823C44.1048 63.7848 44.5476 63.2211 45.1608 62.5345L45.1616 62.5337C46.0747 61.5083 46.4925 61.6822 47.25 61.9974C47.8639 62.2519 48.462 63.0236 48.7044 63.8729C48.8192 64.2739 48.9479 65.0351 48.5264 65.6275C44.9676 70.6242 39.7818 70.56 36.0575 69.6253ZM62.4939 94.2939C56.3142 95.6217 54.1262 92.4599 52.6843 88.8453C51.7537 86.5119 51.2962 75.9892 51.6208 64.3685C51.6249 64.2139 51.603 64.0647 51.5605 63.9241C51.5226 63.6467 51.4649 63.3722 51.3878 63.103C50.9053 61.4122 49.7293 59.9978 48.3184 59.4114C47.7579 59.1786 46.7292 58.7513 45.493 59.0684C45.7566 57.9792 46.2137 56.749 46.7095 55.4171L46.9174 54.8569C47.1515 54.2252 47.4454 53.5709 47.756 52.8781C49.435 49.1379 51.7344 44.0148 49.2388 32.4412C48.3041 28.1062 45.1824 25.9892 40.4503 26.481C37.6134 26.7754 35.0179 27.9231 33.7233 28.5813C33.4449 28.7226 33.1904 28.8593 32.9525 28.9922C33.3139 24.6246 34.6789 16.4619 39.7852 11.2975C43.0004 8.0464 47.2822 6.44062 52.4991 6.52721C62.7784 6.69584 69.3702 11.9856 73.0902 16.394C76.296 20.1923 78.0318 24.0188 78.7245 26.0826C73.5148 25.5513 69.9716 26.5824 68.1756 29.1574C64.268 34.7587 70.3132 45.63 73.2186 50.8549C73.7515 51.8124 74.2113 52.64 74.356 52.9917C75.3021 55.291 76.527 56.8261 77.4212 57.9465C77.6955 58.2898 77.9613 58.6229 78.1636 58.9138C76.5857 59.37 73.7515 60.4239 74.0098 65.6921C73.8015 68.3355 72.3202 80.7116 71.5677 85.0842C70.5742 90.8609 68.4543 93.0121 62.4939 94.2939ZM88.2884 64.694C86.6749 65.4449 83.9748 66.0081 81.4099 66.1293C78.5768 66.2622 77.1345 65.811 76.7952 65.5333C76.6361 62.2504 77.8545 61.9074 79.1442 61.5443C79.3468 61.4874 79.5445 61.4315 79.7354 61.3647C79.854 61.4615 79.9839 61.5576 80.1263 61.6518C82.4033 63.1589 86.4647 63.3214 92.1986 62.1345L92.2615 62.122C91.488 62.847 90.1647 63.8201 88.2884 64.694Z" fill="white"/>
</svg>
