<svg width="100" height="100" viewBox="0 0 100 100" fill="none" xmlns="http://www.w3.org/2000/svg">
<g clip-path="url(#clip0_216_186)">
<path fill-rule="evenodd" clip-rule="evenodd" d="M9.77386 68.6389C8.75652 67.0343 8.74115 64.9903 9.73424 63.3702L47.1259 2.37674C49.2057 -1.01569 54.2275 -0.719066 55.8935 2.89457L90.0526 76.9938C91.3198 79.7432 89.861 82.978 86.961 83.848L33.824 99.7892C31.686 100.43 29.3825 99.571 28.1874 97.6858L9.77386 68.6389ZM51.4401 20.2107C51.8004 18.4164 54.2589 18.1577 54.985 19.8376L78.5475 74.3599C78.9908 75.3865 78.4389 76.5704 77.3673 76.8901L40.6538 87.8496C39.3043 88.2523 38.0116 87.0733 38.2889 85.6923L51.4401 20.2107Z" fill="#5A67D8"/>
</g>
<defs>
<clipPath id="clip0_216_186">
<rect width="100" height="100" fill="white"/>
</clipPath>
</defs>
</svg>
