<svg width="100" height="100" viewBox="0 0 100 100" fill="none" xmlns="http://www.w3.org/2000/svg">
<path d="M94.6282 54.7586C87.7109 63.4483 80.2403 73.3793 65.299 73.3793C51.953 73.3793 46.9809 61.6429 46.6314 52.1087C49.5555 58.2733 55.2725 63.2655 64.1922 63.0345C81.347 62.4828 93.1064 47.0345 93.1064 32.9655C93.1064 16.1379 80.517 4 58.6584 4C43.0254 4 23.657 9.93103 10.9293 19.3103C10.7909 28.9655 16.1864 41.5172 18.1232 40.1379C29.1574 32.2282 37.907 27.1364 46.3935 24.5834C33.8311 38.5502 3.69033 70.9805 0 76.6897C0.415036 81.931 6.91727 96 10.0992 96C11.0676 96 11.8977 95.4483 12.8661 94.4827C21.9529 84.3036 29.3603 75.1773 35.949 66.3808C36.8742 79.2732 43.2329 95.0345 61.0103 95.0345C76.92 95.0345 92.6914 83.5862 99.8853 57.7931C100.715 54.6207 96.8417 52.1379 94.6282 54.7586ZM76.505 33.931C76.505 42.069 68.4809 46.069 61.1486 46.069C57.2293 46.069 54.2185 45.0429 51.8375 43.7096C56.2186 37.0955 60.5554 30.3133 65.2148 23.0529C73.4306 24.4394 76.505 28.9924 76.505 33.931Z" fill="#FF4438"/>
</svg>
