<svg width="100" height="100" viewBox="0 0 100 100" fill="none" xmlns="http://www.w3.org/2000/svg">
<g clip-path="url(#clip0_216_291)">
<path d="M100 0.000488281H0V100H100V0.000488281Z" fill="black"/>
<path fill-rule="evenodd" clip-rule="evenodd" d="M50 16.4516C31.4717 16.4516 16.4516 31.4717 16.4516 50C16.4516 68.5283 31.4717 83.5484 50 83.5484C68.5283 83.5484 83.5484 68.5283 83.5484 50C83.5484 31.4717 68.5283 16.4516 50 16.4516ZM10 50C10 27.9086 27.9086 10 50 10C72.0914 10 90 27.9086 90 50C90 72.0914 72.0914 90 50 90C27.9086 90 10 72.0914 10 50Z" fill="white"/>
<path d="M40.2055 47.9645C49.0206 40.7626 57.6435 33.311 66.6506 26.3203C61.9261 33.58 57.0674 40.7432 52.3429 48.0026C48.2906 48.0219 44.2387 48.0223 40.2055 47.9645ZM47.6571 51.9781C51.7284 51.9781 55.7806 51.9781 59.8329 52.0358C50.9603 59.199 42.3758 66.7081 33.3494 73.6797C38.0739 66.42 42.9326 59.2377 47.6571 51.9781Z" fill="white"/>
</g>
<defs>
<clipPath id="clip0_216_291">
<rect width="100" height="100" rx="10" fill="white"/>
</clipPath>
</defs>
</svg>
