<svg width="100" height="100" viewBox="0 0 100 100" fill="none" xmlns="http://www.w3.org/2000/svg">
<path d="M67.5561 36.4715C67.5542 37.74 67.3022 38.9957 66.8145 40.1667C66.3268 41.3377 65.6131 42.4011 64.7141 43.296C63.815 44.1909 62.7484 44.8998 61.5751 45.3821C60.4019 45.8644 59.1451 46.1107 57.8766 46.1068C56.6081 46.1107 55.3512 45.8644 54.178 45.3821C53.0048 44.8998 51.9381 44.1909 51.0391 43.296C50.1401 42.4011 49.4263 41.3377 48.9386 40.1667C48.451 38.9957 48.199 37.74 48.197 36.4715C48.1999 35.2036 48.4526 33.9487 48.9407 32.7785C49.4288 31.6083 50.1428 30.5458 51.0417 29.6517C51.9406 28.7575 53.0069 28.0493 54.1797 27.5675C55.3525 27.0856 56.6087 26.8396 57.8766 26.8435C59.1445 26.8396 60.4007 27.0856 61.5735 27.5675C62.7462 28.0493 63.8125 28.7575 64.7115 29.6517C65.6104 30.5458 66.3243 31.6083 66.8124 32.7785C67.3005 33.9487 67.5532 35.2036 67.5561 36.4715Z" fill="#FFC131"/>
<path d="M51.3351 63.5359C51.3322 64.8038 51.0795 66.0587 50.5914 67.2288C50.1033 68.399 49.3894 69.4615 48.4905 70.3557C47.5915 71.2498 46.5252 71.958 45.3525 72.4399C44.1797 72.9217 42.9235 73.1678 41.6556 73.1639C40.3871 73.1687 39.1301 72.9234 37.9565 72.442C36.7828 71.9606 35.7157 71.2525 34.8159 70.3583C33.9162 69.4641 33.2017 68.4012 32.7131 67.2306C32.2245 66.0599 31.9716 64.8044 31.9687 63.5359C31.9706 62.2668 32.2229 61.0105 32.711 59.839C33.1991 58.6675 33.9135 57.6037 34.8133 56.7087C35.7131 55.8137 36.7807 55.105 37.9548 54.6231C39.1288 54.1412 40.3865 53.8957 41.6556 53.9005C42.9241 53.8967 44.1809 54.1429 45.3542 54.6252C46.5274 55.1075 47.5941 55.8164 48.4931 56.7113C49.3921 57.6063 50.1059 58.6696 50.5935 59.8407C51.0812 61.0117 51.3332 62.2674 51.3351 63.5359Z" fill="#24C8DB"/>
<path d="M34.2744 27.8011C17.5672 31.2044 5 45.9079 5 63.5285C5 83.6758 21.4125 100 41.6556 100C49.4565 100.01 57.0573 97.5311 63.3518 92.9231C69.6464 88.3151 74.3064 81.8188 76.6537 74.3793C72.2508 76.5381 67.5085 77.9212 62.6353 78.4677C60.2422 81.7945 57.091 84.5033 53.4426 86.3698C49.7942 88.2363 45.7537 89.2067 41.6556 89.2007C38.2765 89.2094 34.9288 88.5525 31.8037 87.2674C28.6785 85.9824 25.837 84.0943 23.4415 81.7111C21.046 79.3279 19.1433 76.4962 17.8422 73.3777C16.5411 70.2592 15.8669 66.915 15.8582 63.5359C15.8652 58.2668 17.4925 53.1273 20.5194 48.8143C23.5462 44.5014 27.8262 41.2236 32.779 39.4254C32.3731 35.4872 32.885 31.5084 34.2744 27.8011Z" fill="#24C8DB"/>
<path fill-rule="evenodd" clip-rule="evenodd" d="M65.2578 72.2062C81.9576 68.8103 94.5322 54.0994 94.5322 36.4788C94.5322 16.3241 78.1197 2.89686e-05 57.8766 2.89686e-05C50.0747 -0.00977765 42.4733 2.4705 36.1786 7.07988C29.8839 11.6893 25.2245 18.1872 22.8784 25.628C27.2813 23.4691 32.0237 22.086 36.8968 21.5396C39.2904 18.2133 42.4417 15.5048 46.09 13.6384C49.7382 11.772 53.7786 10.8013 57.8766 10.8067C61.2556 10.7979 64.6033 11.4549 67.7285 12.7399C70.8537 14.025 73.6951 15.913 76.0907 18.2962C78.4862 20.6794 80.3888 23.5111 81.69 26.6296C82.9911 29.7481 83.6653 33.0924 83.674 36.4715C83.6669 41.7406 82.0397 46.88 79.0128 51.193C75.986 55.506 71.706 58.7838 66.7532 60.5819C67.159 64.5202 66.6472 68.4989 65.2578 72.2062Z" fill="#FFC131"/>
</svg>
