<svg width="88" height="31" viewBox="0 0 88 31" fill="none" xmlns="http://www.w3.org/2000/svg">
<path d="M0 31L12.9836 7.53271C16.7344 0.579439 21.7548 0 32.6033 0L15.8689 31H0Z" fill="black"/>
<path d="M18.7541 31L36.3541 0H51.9344L35.2 31H18.7541Z" fill="black"/>
<path d="M70.9771 0L58.859 22.0187C54.2426 28.972 53.3771 31 38.0852 31L55.1082 0H70.9771Z" fill="black"/>
<path d="M88 7.82243C88 12.1426 84.5122 15.6449 80.2098 15.6449C75.9074 15.6449 72.4197 12.1426 72.4197 7.82243C72.4197 3.50222 75.9074 0 80.2098 0C84.5122 0 88 3.50222 88 7.82243Z" fill="black"/>
</svg>
