<svg width="500" height="500" viewBox="0 0 500 500" fill="none" xmlns="http://www.w3.org/2000/svg">
<path d="M264.018 461.18L241.237 418.345L259.564 365.438V333.05L203.47 365.438V397.825L227.586 439.598C227.995 440.302 228.58 440.762 229.222 441.052L229.21 441.075L264.018 461.18Z" fill="url(#paint0_linear_259_3603)"/>
<path opacity="0.2" d="M264.018 461.18L241.237 418.345L259.564 365.438V333.05L203.47 365.438V397.825L227.586 439.598C227.995 440.302 228.58 440.762 229.222 441.052L229.21 441.075L264.018 461.18Z" fill="black"/>
<path d="M392 79.0568C392 68.3311 384.473 55.2931 375.184 49.9245L361.487 42.0222C352.204 36.6593 337.144 36.6593 327.856 42.0222L123.822 160.017C114.533 165.38 107 178.418 107 189.149V420.214C107 430.939 114.533 443.983 123.822 449.346L137.513 457.254C146.801 462.617 161.862 462.617 171.15 457.254L238.692 418.231L262.757 459.918C264.296 462.583 268.256 462.208 269.261 459.299L294.695 385.872L375.178 339.259C384.467 333.902 391.994 320.858 391.994 310.132L392 79.0568Z" fill="url(#paint1_linear_259_3603)"/>
<path opacity="0.2" d="M107.005 420.208C107.005 430.934 114.533 443.977 123.821 449.334L137.512 457.242C145.909 462.088 158.97 462.509 168.275 458.595C160.362 461.588 154.334 457.123 154.334 447.528V216.464C154.334 211.101 156.22 205.158 159.259 199.892L111.931 172.566C108.886 177.838 107.005 183.775 107.005 189.138V420.208Z" fill="black"/>
<path opacity="0.3" d="M391.449 74.2806C389.489 67.1396 382.978 64.8671 375.212 69.3381L171.144 187.356C166.514 190.026 162.282 194.571 159.299 199.911L111.988 172.608C115.05 167.273 119.208 162.723 123.833 160.053L327.821 42.0294C337.161 36.6949 352.221 36.6949 361.481 42.0294L375.212 49.9545C383.132 54.5107 389.801 64.7081 391.449 74.2806Z" fill="white"/>
<path d="M369.112 203.929L352.983 194.19V194.2C352.548 193.939 351.969 193.922 351.327 194.225L332.259 203.274C330.914 203.912 329.529 203.207 329.083 201.724C327.976 198.036 332.119 198.047 330.405 195.105C329.632 193.781 329.458 191.636 330.114 190.241L342.824 163.265C343.479 161.874 342.974 160.112 341.696 159.337L322.331 147.621C321.052 146.843 319.352 147.262 318.536 148.558L302.698 173.632C301.881 174.925 300.027 175.841 298.548 175.798C296.755 175.749 294.907 175.848 293.017 176.07L298.592 161.067L282.436 151.309C281.967 151.045 281.351 151.08 280.705 151.475L259.282 164.494C258.004 165.273 256.859 167.154 256.726 168.704L254.581 193.795C254.447 195.341 253.44 197.427 252.352 198.48C248.182 202.52 244.2 206.973 240.452 211.739C239.512 212.937 237.638 213.507 236.243 212.993L222.493 207.938C221.097 207.427 219.37 208.1 218.631 209.446L202.88 238.162C202.14 239.507 202.451 241.42 203.569 242.435L214.605 252.442C215.723 253.457 216.188 255.45 215.676 256.909C213.632 262.71 211.958 268.568 210.717 274.388C210.392 275.902 209.184 277.865 207.976 278.759L188.407 293.262C187.199 294.156 186.222 296.143 186.222 297.697V323.735C186.222 324.538 186.516 325.116 186.981 325.409L186.978 325.412L203.104 335.148L213.203 324.007C213.809 325.345 214.451 326.634 215.154 327.843C215.924 329.167 216.101 331.312 215.445 332.707L202.736 359.683C202.08 361.075 202.585 362.832 203.864 363.611L223.229 375.327C224.507 376.105 226.207 375.686 227.024 374.39L237.287 345.98C238.103 344.688 239.96 343.772 241.436 343.814C244.712 343.906 248.162 343.546 251.75 342.711C253.192 342.377 254.464 343.286 254.611 344.832L256.702 366.742C256.772 367.489 257.084 368.014 257.525 368.278L257.519 368.282L273.625 378.011L286.277 358.45C287.555 357.672 288.7 355.787 288.83 354.241L285.404 325.814C285.538 324.267 286.782 322.619 288.144 322.02C294.265 319.322 300.452 314.658 304.786 309.733C305.79 308.592 307.66 308.018 309.052 308.535L317.495 311.664C318.887 312.181 320.614 311.509 321.353 310.163L337.101 281.447C337.841 280.101 337.533 278.189 336.412 277.174L329.157 270.594C328.039 269.579 327.574 267.586 327.979 266.089C329.719 259.663 330.114 251.259 329.947 245.277C329.903 243.724 330.797 241.741 332.005 240.846L357.149 229.679C358.357 228.785 359.334 226.801 359.334 225.245L368.687 213.444L369.112 203.929ZM275.566 307.141C255.578 319.29 243.153 310.67 243.153 286.375C243.153 262.08 259.67 232.318 279.658 220.172C299.646 208.023 311.753 216.861 311.753 241.156C311.756 265.448 295.553 294.991 275.566 307.141Z" fill="url(#paint2_linear_259_3603)"/>
<path opacity="0.3" d="M369.112 203.929L352.983 194.19V194.2C352.548 193.939 351.969 193.922 351.327 194.225L332.259 203.274C330.914 203.912 329.529 203.207 329.083 201.724C327.976 198.036 332.119 198.047 330.405 195.105C329.632 193.781 329.458 191.636 330.114 190.241L342.824 163.265C343.479 161.874 342.974 160.112 341.696 159.337L322.331 147.621C321.052 146.843 319.352 147.262 318.536 148.558L302.698 173.632C301.881 174.925 300.027 175.841 298.548 175.798C296.755 175.749 294.907 175.848 293.017 176.07L298.592 161.067L282.436 151.309C281.967 151.045 281.351 151.08 280.705 151.475L259.282 164.494C258.004 165.273 256.859 167.154 256.726 168.704L254.581 193.795C254.447 195.341 253.44 197.427 252.352 198.48C248.182 202.52 244.2 206.973 240.452 211.739C239.512 212.937 237.638 213.507 236.243 212.993L222.493 207.938C221.097 207.427 219.37 208.1 218.631 209.446L202.88 238.162C202.14 239.507 202.451 241.42 203.569 242.435L214.605 252.442C215.723 253.457 216.188 255.45 215.676 256.909C213.632 262.71 211.958 268.568 210.717 274.388C210.392 275.902 209.184 277.865 207.976 278.759L188.407 293.262C187.199 294.156 186.222 296.143 186.222 297.697V323.735C186.222 324.538 186.516 325.116 186.981 325.409L186.978 325.412L203.104 335.148L213.203 324.007C213.809 325.345 214.451 326.634 215.154 327.843C215.924 329.167 216.101 331.312 215.445 332.707L202.736 359.683C202.08 361.075 202.585 362.832 203.864 363.611L223.229 375.327C224.507 376.105 226.207 375.686 227.024 374.39L237.287 345.98C238.103 344.688 239.96 343.772 241.436 343.814C244.712 343.906 248.162 343.546 251.75 342.711C253.192 342.377 254.464 343.286 254.611 344.832L256.702 366.742C256.772 367.489 257.084 368.014 257.525 368.278L257.519 368.282L273.625 378.011L286.277 358.45C287.555 357.672 288.7 355.787 288.83 354.241L285.404 325.814C285.538 324.267 286.782 322.619 288.144 322.02C294.265 319.322 300.452 314.658 304.786 309.733C305.79 308.592 307.66 308.018 309.052 308.535L317.495 311.664C318.887 312.181 320.614 311.509 321.353 310.163L337.101 281.447C337.841 280.101 337.533 278.189 336.412 277.174L329.157 270.594C328.039 269.579 327.574 267.586 327.979 266.089C329.719 259.663 330.114 251.259 329.947 245.277C329.903 243.724 330.797 241.741 332.005 240.846L357.149 229.679C358.357 228.785 359.334 226.801 359.334 225.245L368.687 213.444L369.112 203.929ZM275.566 307.141C255.578 319.29 243.153 310.67 243.153 286.375C243.153 262.08 259.67 232.318 279.658 220.172C299.646 208.023 311.753 216.861 311.753 241.156C311.756 265.448 295.553 294.991 275.566 307.141Z" fill="white"/>
<path opacity="0.1" d="M276.92 339.907L245.696 326.141L219.076 311.688L207.819 332.816L213.199 324.024C213.805 325.362 214.448 326.651 215.15 327.86C215.92 329.184 216.097 331.33 215.441 332.724L202.732 359.7C202.076 361.092 202.581 362.849 203.86 363.628L223.225 375.344C224.503 376.122 226.203 375.703 227.02 374.407L237.283 345.997C238.1 344.705 239.957 343.789 241.433 343.831C244.709 343.923 248.159 343.563 251.746 342.729C253.188 342.394 254.46 343.303 254.607 344.849L256.698 366.759C256.769 367.506 257.08 368.031 257.522 368.295L257.518 368.299L273.624 378.028L279.601 368.785L276.92 339.907Z" fill="black"/>
<path opacity="0.1" d="M326.724 260.219V216.658L309.243 201.089L300.987 215.799C307.914 218.688 311.756 227.466 311.756 241.147C311.756 265.446 295.553 294.986 275.565 307.135C263.846 314.258 254.758 314.195 249.22 308.065L243.236 318.732C243.236 318.732 272.607 328.296 286.103 322.339C299.592 316.382 326.724 260.219 326.724 260.219Z" fill="black"/>
<path d="M338.62 172.187L342.823 163.265C343.479 161.873 342.974 160.112 341.695 159.337L322.33 147.621C321.052 146.842 319.352 147.262 318.535 148.558L302.697 173.631C302.44 174.04 302.061 174.385 301.643 174.699L324.944 188.807L338.62 172.187Z" fill="url(#paint3_linear_259_3603)"/>
<path d="M209.488 277.08C209.03 277.76 208.508 278.38 207.976 278.774L188.406 293.277C187.915 293.643 187.483 294.21 187.118 294.834L204.633 305.426L230.614 289.867L209.488 277.08Z" fill="url(#paint4_linear_259_3603)"/>
<path d="M221.385 207.779C220.284 207.822 219.179 208.452 218.631 209.456L202.879 238.172C202.535 238.799 202.441 239.546 202.525 240.268L221.673 251.854L243.23 221.154L221.385 207.779Z" fill="url(#paint5_linear_259_3603)"/>
<path d="M257.141 167.215L279.511 180.756L298.588 169.159V161.068L282.432 151.311C281.964 151.046 281.348 151.082 280.702 151.476L259.279 164.496C258.399 165.035 257.606 166.102 257.141 167.215Z" fill="url(#paint6_linear_259_3603)"/>
<path d="M369.119 203.932V203.95C368.691 203.651 368.085 203.633 367.426 203.95L348.355 212.992C347.02 213.63 345.628 212.936 345.183 211.453C344.433 208.92 339.889 202.154 340.29 199.455L351.316 194.217C351.959 193.918 352.545 193.935 352.973 194.2V194.182L369.119 203.932Z" fill="url(#paint7_linear_259_3603)"/>
<g opacity="0.7">
<path d="M338.62 172.187L342.823 163.265C343.479 161.873 342.974 160.112 341.695 159.337L322.33 147.621C321.052 146.842 319.352 147.262 318.535 148.558L302.697 173.631C302.44 174.04 302.061 174.385 301.643 174.699L324.944 188.807L338.62 172.187Z" fill="white"/>
<path d="M303.404 174.492L324.72 187.395L337.741 171.568L341.887 162.772C342.292 161.909 341.967 160.775 341.174 160.296L321.809 148.58C321.012 148.094 319.918 148.368 319.413 149.172L303.574 174.245C303.521 174.33 303.464 174.411 303.404 174.492Z" fill="white"/>
<path d="M209.488 277.08C209.03 277.76 208.508 278.38 207.976 278.774L188.406 293.277C187.915 293.643 187.483 294.21 187.118 294.834L204.633 305.426L230.614 289.867L209.488 277.08Z" fill="white"/>
<path d="M188.667 294.497L204.633 304.153L228.496 289.861L209.756 278.522C209.368 279.005 208.973 279.392 208.578 279.681L189.009 294.18C188.898 294.265 188.785 294.37 188.667 294.497Z" fill="white"/>
<path d="M221.385 207.779C220.284 207.822 219.179 208.452 218.631 209.456L202.879 238.172C202.535 238.799 202.441 239.546 202.525 240.268L221.673 251.854L243.23 221.154L221.385 207.779Z" fill="white"/>
<path d="M257.141 167.215L279.511 180.756L298.588 169.159V161.068L282.432 151.311C281.964 151.046 281.348 151.082 280.702 151.476L259.279 164.496C258.399 165.035 257.606 166.102 257.141 167.215Z" fill="white"/>
<path d="M258.553 166.794L279.507 179.478L297.538 168.52V161.707L281.91 152.27C281.786 152.203 281.519 152.256 281.228 152.432L259.804 165.455C259.373 165.719 258.921 166.209 258.553 166.794Z" fill="white"/>
<path d="M369.119 203.932V203.95C368.69 203.651 368.085 203.633 367.425 203.95L348.355 212.992C347.019 213.63 345.627 212.936 345.182 211.453C344.433 208.92 339.838 201.946 340.29 199.455L351.316 194.217C351.959 193.918 352.544 193.935 352.973 194.2V194.182L369.119 203.932Z" fill="white"/>
<path d="M341.334 200.177C341.548 201.71 343.181 204.866 344.205 206.846C345.109 208.593 345.888 210.101 346.19 211.122C346.317 211.545 346.568 211.865 346.896 212.02C347.207 212.168 347.565 212.154 347.923 211.982L366.083 203.369L354.03 196.088V196.102L352.451 195.151C352.337 195.077 352.089 195.063 351.748 195.225L341.334 200.177Z" fill="white"/>
</g>
<path d="M369.872 231.653V205.61C369.872 204.057 368.781 203.314 367.435 203.951L348.368 213.001C347.023 213.638 345.637 212.934 345.192 211.454C344.085 207.766 342.652 204.444 340.942 201.503C340.169 200.179 339.995 198.03 340.651 196.638L353.361 169.663C354.017 168.271 353.511 166.51 352.233 165.735L338.439 157.351C337.161 156.573 335.461 156.992 334.645 158.288L318.806 183.362C317.99 184.655 316.136 185.57 314.66 185.528C311.384 185.44 307.938 185.796 304.347 186.631C302.905 186.965 301.633 186.057 301.486 184.51L299.394 162.603C299.247 161.057 298.089 160.433 296.811 161.212L275.388 174.231C274.109 175.01 272.965 176.894 272.831 178.441L270.686 203.532C270.552 205.078 269.545 207.164 268.457 208.217C264.288 212.257 260.306 216.71 256.558 221.476C255.618 222.674 253.744 223.244 252.348 222.73L238.595 217.675C237.199 217.161 235.473 217.837 234.733 219.183L218.985 247.899C218.246 249.244 218.557 251.157 219.675 252.172L230.707 262.179C231.825 263.194 232.294 265.187 231.778 266.646C229.734 272.447 228.06 278.302 226.822 284.125C226.501 285.639 225.29 287.602 224.082 288.496L204.512 302.999C203.304 303.893 202.327 305.877 202.327 307.434V333.472C202.327 335.026 203.418 335.769 204.763 335.132L223.831 326.082C225.176 325.444 226.561 326.149 227.006 327.628C228.114 331.317 229.543 334.638 231.256 337.58C232.026 338.904 232.203 341.053 231.544 342.444L218.835 369.42C218.179 370.812 218.684 372.569 219.962 373.348L233.756 381.728C235.034 382.506 236.734 382.087 237.551 380.791L253.389 355.717C254.205 354.425 256.063 353.509 257.538 353.547C260.814 353.636 264.261 353.28 267.852 352.445C269.294 352.11 270.566 353.019 270.713 354.566L272.804 376.472C272.952 378.019 274.109 378.642 275.388 377.867L296.811 364.848C298.089 364.069 299.234 362.185 299.364 360.638L301.509 335.547C301.64 334.001 302.65 331.915 303.738 330.862C307.907 326.822 311.886 322.369 315.634 317.607C316.574 316.409 318.452 315.838 319.844 316.349L333.597 321.404C334.993 321.915 336.719 321.242 337.459 319.896L353.21 291.18C353.95 289.835 353.642 287.922 352.521 286.908L341.484 276.9C340.367 275.886 339.898 273.892 340.414 272.433C342.458 266.632 344.131 260.777 345.373 254.954C345.694 253.44 346.906 251.478 348.114 250.583L367.683 236.081C368.891 235.189 369.872 233.206 369.872 231.653ZM286.099 313.535C266.112 325.684 249.905 315.835 249.905 291.54C249.905 267.245 266.112 237.701 286.099 225.552C306.087 213.406 322.29 223.251 322.29 247.546C322.29 271.842 306.087 301.385 286.099 313.535Z" fill="url(#paint8_linear_259_3603)"/>
<g opacity="0.55">
<path d="M369.872 231.652V205.61C369.872 204.056 368.781 203.313 367.435 203.951L348.368 213C347.023 213.638 345.637 212.933 345.192 211.454C344.085 207.766 342.652 204.444 340.942 201.502C340.169 200.178 339.995 198.029 340.651 196.638L353.361 169.662C354.017 168.271 353.511 166.509 352.233 165.734L338.439 157.351C337.161 156.572 335.461 156.991 334.645 158.288L318.806 183.361C317.99 184.654 316.136 185.57 314.66 185.528C311.384 185.44 307.938 185.795 304.347 186.63C302.905 186.965 301.633 186.056 301.486 184.51L299.394 162.603C299.247 161.056 298.089 160.433 296.811 161.211L275.388 174.231C274.109 175.009 272.965 176.894 272.831 178.44L270.686 203.531C270.552 205.078 269.545 207.163 268.457 208.216C264.288 212.257 260.306 216.709 256.558 221.475C255.618 222.673 253.744 223.244 252.348 222.729L238.595 217.675C237.199 217.16 235.473 217.837 234.733 219.182L218.985 247.898C218.246 249.244 218.557 251.157 219.675 252.171L230.707 262.179C231.825 263.193 232.294 265.187 231.778 266.645C229.734 272.447 228.06 278.301 226.822 284.124C226.501 285.639 225.29 287.601 224.082 288.496L204.512 302.998C203.304 303.893 202.327 305.876 202.327 307.433V333.472C202.327 335.025 203.418 335.769 204.763 335.131L223.831 326.081C225.176 325.444 226.561 326.148 227.006 327.628C228.114 331.316 229.543 334.638 231.256 337.579C232.026 338.904 232.203 341.052 231.544 342.444L218.835 369.419C218.179 370.811 218.684 372.569 219.962 373.347L233.756 381.727C235.034 382.506 236.734 382.087 237.551 380.79L253.389 355.717C254.205 354.424 256.063 353.508 257.538 353.547C260.814 353.635 264.261 353.279 267.852 352.444C269.294 352.11 270.566 353.018 270.713 354.565L272.804 376.472C272.952 378.018 274.109 378.642 275.388 377.867L296.811 364.847C298.089 364.069 299.234 362.184 299.364 360.638L301.509 335.547C301.64 334 302.65 331.915 303.738 330.862C307.907 326.821 311.886 322.369 315.634 317.606C316.574 316.408 318.452 315.838 319.844 316.349L333.597 321.403C334.993 321.914 336.719 321.241 337.459 319.896L353.21 291.18C353.95 289.834 353.642 287.922 352.521 286.907L341.484 276.899C340.367 275.885 339.898 273.891 340.414 272.433C342.458 266.631 344.131 260.777 345.373 254.954C345.694 253.439 346.906 251.477 348.114 250.582L367.683 236.08C368.891 235.189 369.872 233.206 369.872 231.652ZM286.099 313.534C266.112 325.683 249.905 315.834 249.905 291.539C249.905 267.244 266.112 237.7 286.099 225.551C306.087 213.405 322.29 223.251 322.29 247.546C322.29 271.841 306.087 301.385 286.099 313.534Z" fill="white"/>
</g>
<g opacity="0.2">
<path d="M286.625 314.492C306.87 302.188 323.341 272.155 323.341 247.546C323.341 235.383 319.389 226.284 312.215 221.923C305.04 217.562 295.58 218.51 285.574 224.59C265.326 236.894 248.855 266.927 248.855 291.536C248.855 303.696 252.807 312.798 259.982 317.155C262.95 318.959 266.306 319.854 269.934 319.854C275.077 319.861 280.759 318.057 286.625 314.492ZM249.906 291.539C249.906 267.244 266.112 237.701 286.1 225.551C306.087 213.405 322.29 223.251 322.29 247.546C322.29 271.841 306.087 301.385 286.1 313.534C266.112 325.684 249.906 315.835 249.906 291.539Z" fill="white"/>
<path d="M219.966 373.355L233.759 381.735C235.038 382.51 236.737 382.094 237.554 380.798L253.392 355.724C254.209 354.431 256.066 353.516 257.542 353.554C260.818 353.642 264.268 353.287 267.855 352.452C269.297 352.117 270.569 353.026 270.716 354.572L272.808 376.479C272.955 378.026 274.109 378.649 275.391 377.874L296.814 364.855C298.093 364.076 299.237 362.192 299.368 360.645L301.513 335.554C301.643 334.008 302.654 331.922 303.741 330.869C307.911 326.829 311.89 322.376 315.637 317.614C316.578 316.416 318.455 315.845 319.847 316.356L333.601 321.411C334.996 321.925 336.723 321.249 337.462 319.903L353.213 291.187C353.953 289.842 353.642 287.929 352.524 286.915L341.488 276.907C340.37 275.892 339.902 273.899 340.417 272.44C342.462 266.639 344.135 260.784 345.376 254.961C345.701 253.443 346.909 251.485 348.117 250.59L367.686 236.087C368.894 235.193 369.872 233.206 369.872 231.653V205.61C369.872 204.057 368.781 203.314 367.435 203.951L348.368 213.001C347.023 213.638 345.637 212.934 345.192 211.451C344.085 207.763 342.652 204.441 340.942 201.499C340.173 200.175 339.995 198.03 340.651 196.635L353.361 169.659C354.017 168.268 353.511 166.506 352.233 165.731L338.439 157.348C337.161 156.569 335.461 156.988 334.645 158.285L318.806 183.358C317.99 184.651 316.136 185.567 314.66 185.525C311.384 185.437 307.938 185.792 304.347 186.627C302.905 186.962 301.633 186.053 301.486 184.507L299.394 162.6C299.247 161.053 298.093 160.43 296.811 161.208L275.388 174.228C274.109 175.006 272.965 176.891 272.831 178.437L270.686 203.528C270.552 205.075 269.545 207.16 268.457 208.213C264.288 212.254 260.306 216.706 256.558 221.472C255.618 222.67 253.744 223.241 252.348 222.726L238.595 217.671C237.203 217.157 235.473 217.834 234.733 219.179L218.985 247.895C218.246 249.241 218.557 251.153 219.675 252.168L230.707 262.176C231.825 263.19 232.294 265.184 231.778 266.642C229.734 272.444 228.06 278.298 226.822 284.121C226.501 285.636 225.29 287.598 224.082 288.493L204.512 302.995C203.304 303.89 202.327 305.873 202.327 307.43V333.469C202.327 335.022 203.418 335.765 204.763 335.124L223.831 326.075C225.176 325.437 226.561 326.142 227.006 327.621C228.114 331.309 229.543 334.631 231.256 337.573C232.026 338.897 232.203 341.046 231.544 342.437L218.835 369.413C218.182 370.818 218.687 372.576 219.966 373.355ZM219.782 369.92L232.491 342.944C233.287 341.257 233.144 338.707 232.156 337.009C230.473 334.113 229.078 330.848 228.01 327.301C227.696 326.258 227.037 325.455 226.15 325.039C225.731 324.842 225.286 324.747 224.838 324.747C224.359 324.747 223.871 324.856 223.399 325.081L204.332 334.131C204.024 334.275 203.756 334.3 203.612 334.205C203.465 334.106 203.378 333.835 203.378 333.483V307.444C203.378 306.25 204.191 304.601 205.118 303.914L224.691 289.412C226.106 288.366 227.461 286.199 227.85 284.378C229.061 278.696 230.717 272.863 232.769 267.044C233.435 265.156 232.832 262.658 231.397 261.355L220.361 251.347C219.621 250.678 219.407 249.357 219.895 248.466L235.643 219.75C236.132 218.859 237.326 218.394 238.247 218.732L252 223.787C253.787 224.438 256.143 223.741 257.364 222.191C261.122 217.414 265.094 212.99 269.167 209.038C270.472 207.773 271.576 205.452 271.73 203.638L273.875 178.546C273.976 177.359 274.926 175.792 275.91 175.196L297.333 162.177C297.624 161.997 297.892 161.941 298.042 162.029C298.196 162.114 298.31 162.371 298.344 162.723L300.432 184.63C300.532 185.676 301.011 186.574 301.777 187.159C302.563 187.758 303.55 187.959 304.564 187.723C308.018 186.92 311.394 186.56 314.623 186.648C316.554 186.708 318.683 185.556 319.673 183.985L335.511 158.908C336.017 158.108 337.107 157.834 337.907 158.32L351.701 166.704C352.491 167.183 352.819 168.32 352.414 169.183L339.704 196.159C338.908 197.847 339.052 200.397 340.039 202.091C341.725 204.987 343.121 208.252 344.185 211.799C344.5 212.842 345.159 213.645 346.042 214.061C346.906 214.462 347.879 214.452 348.793 214.022L367.86 204.976C368.165 204.828 368.433 204.804 368.58 204.902C368.724 205.001 368.814 205.272 368.814 205.624V231.667C368.814 232.861 368.001 234.509 367.074 235.196L347.505 249.695C346.089 250.741 344.73 252.908 344.342 254.729C343.131 260.407 341.478 266.237 339.423 272.067C338.757 273.955 339.36 276.456 340.795 277.756L351.831 287.763C352.571 288.433 352.785 289.754 352.297 290.645L336.545 319.361C336.057 320.252 334.865 320.721 333.942 320.379L320.192 315.324C318.408 314.669 316.049 315.366 314.824 316.92C311.06 321.707 307.088 326.128 303.025 330.069C301.74 331.313 300.616 333.687 300.462 335.469L298.317 360.564C298.216 361.751 297.266 363.319 296.282 363.914L274.859 376.937C274.568 377.113 274.303 377.17 274.15 377.085C273.996 377 273.882 376.743 273.848 376.391L271.76 354.481C271.66 353.435 271.185 352.536 270.418 351.955C269.635 351.356 268.645 351.159 267.628 351.392C264.174 352.191 260.781 352.554 257.568 352.469C255.681 352.424 253.509 353.561 252.515 355.132L236.677 380.206C236.172 381.006 235.074 381.277 234.281 380.798L220.488 372.418C219.698 371.914 219.373 370.78 219.782 369.92Z" fill="white"/>
</g>
<defs>
<linearGradient id="paint0_linear_259_3603" x1="233.744" y1="333.05" x2="233.744" y2="461.18" gradientUnits="userSpaceOnUse">
<stop stop-color="#2DBFE0"/>
<stop offset="1" stop-color="#3F6394"/>
</linearGradient>
<linearGradient id="paint1_linear_259_3603" x1="249.5" y1="38" x2="249.5" y2="461.715" gradientUnits="userSpaceOnUse">
<stop stop-color="#2DBFE0"/>
<stop offset="1" stop-color="#3F6394"/>
</linearGradient>
<linearGradient id="paint2_linear_259_3603" x1="277.667" y1="147.23" x2="277.667" y2="378.011" gradientUnits="userSpaceOnUse">
<stop stop-color="#2DBFE0"/>
<stop offset="1" stop-color="#3F6394"/>
</linearGradient>
<linearGradient id="paint3_linear_259_3603" x1="322.377" y1="147.229" x2="322.377" y2="188.807" gradientUnits="userSpaceOnUse">
<stop stop-color="#2DBFE0"/>
<stop offset="1" stop-color="#3F6394"/>
</linearGradient>
<linearGradient id="paint4_linear_259_3603" x1="208.866" y1="277.08" x2="208.866" y2="305.426" gradientUnits="userSpaceOnUse">
<stop stop-color="#2DBFE0"/>
<stop offset="1" stop-color="#3F6394"/>
</linearGradient>
<linearGradient id="paint5_linear_259_3603" x1="222.863" y1="207.779" x2="222.863" y2="251.854" gradientUnits="userSpaceOnUse">
<stop stop-color="#2DBFE0"/>
<stop offset="1" stop-color="#3F6394"/>
</linearGradient>
<linearGradient id="paint6_linear_259_3603" x1="277.864" y1="151.143" x2="277.864" y2="180.756" gradientUnits="userSpaceOnUse">
<stop stop-color="#2DBFE0"/>
<stop offset="1" stop-color="#3F6394"/>
</linearGradient>
<linearGradient id="paint7_linear_259_3603" x1="354.692" y1="193.997" x2="354.692" y2="213.229" gradientUnits="userSpaceOnUse">
<stop stop-color="#2DBFE0"/>
<stop offset="1" stop-color="#3F6394"/>
</linearGradient>
<linearGradient id="paint8_linear_259_3603" x1="286.099" y1="156.96" x2="286.099" y2="382.119" gradientUnits="userSpaceOnUse">
<stop stop-color="#2DBFE0"/>
<stop offset="1" stop-color="#3F6394"/>
</linearGradient>
</defs>
</svg>
