<svg width="239" height="227" viewBox="0 0 239 227" fill="none" xmlns="http://www.w3.org/2000/svg">
<path d="M108.53 0H120.784L126.852 0.349949L131.987 0.816547L137.472 1.51644L143.307 2.44964L149.142 3.61614L154.51 4.89928L160.345 6.53237L164.779 7.93217L169.681 9.68191L173.532 11.1984L177.616 12.9481L180.884 14.4645L185.785 16.9142L188.469 18.4306L190.57 19.5971L193.254 21.2302L195.238 22.5134L196.988 23.6799V23.9132L192.67 24.8464L189.053 25.8962L185.668 27.0627L182.051 28.5791L178.2 30.4455L175.516 31.962L173.415 33.1285L170.731 34.7616L167.813 36.628L167.113 37.0946L166.997 37.2112L182.634 35.4615L182.984 35.5781L177.616 38.611L174.932 40.2441L172.948 41.5272L170.498 43.1603L168.164 44.7934L165.946 46.4265L164.312 47.7097L162.445 49.2261L161.162 50.276L159.528 51.6757L158.127 52.9589L157.194 53.7754L156.377 54.592L155.443 55.4085L152.409 58.4414L151.592 59.3746L149.958 61.1244L148.908 62.4075L147.858 63.574L146.574 65.2071L145.057 67.0735L143.423 69.2898L141.79 71.6228L139.806 74.6557L137.822 77.9219L136.188 80.8381L134.437 84.221L132.804 87.6038L130.82 92.2698L129.186 96.7025V97.0524L130.937 96.1192L133.621 94.8361L138.989 92.1531L139.222 92.2698L137.355 96.0026L135.488 100.202L134.204 103.468L158.244 103.351L156.61 100.435L155.56 98.2189L154.51 95.4193L153.926 93.3196V92.9697L155.21 93.3196L161.745 95.6526L165.946 97.1691L165.596 94.7194L165.246 91.5699L165.129 88.8869V87.4872L165.363 83.5211L165.83 80.0216L166.53 76.5221L167.463 73.0226L168.747 69.1732L170.031 66.0236L171.081 63.6906L173.065 59.7246L174.699 56.925L175.982 54.8253L177.383 52.7256L178.783 50.7425L180.65 48.2929L181.584 47.1264L182.634 45.8433L184.151 44.0935L185.552 42.5771L187.302 40.7107L188.353 39.6608L189.286 38.8443L191.037 37.2112L192.32 36.1614L194.071 34.7616L195.821 33.4784L196.288 33.5951L197.805 34.9949L200.606 37.5612L201.306 38.1444L201.89 35.3448L202.59 33.0118L203.523 30.9121L204.34 29.5123H204.807L206.324 30.7955L207.608 31.8453L209.242 33.3618L210.175 34.1783L211.226 35.2282L212.159 36.0447L213.91 37.7945L214.727 38.7276L215.66 39.6608L216.477 40.594L217.527 41.7605L218.578 43.0437L220.211 45.0267L221.612 46.8931L223.129 48.9928L225.463 52.4923L226.98 54.9419L228.73 58.0915L230.248 61.0077L231.998 64.8571L233.632 69.0565L235.032 73.2559L236.199 77.3386L237.133 81.538L237.833 85.3875L238.417 89.9368L238.767 94.1362L238.883 96.7025V99.852L238.767 99.9687L178.9 100.085L180.884 101.718L182.051 102.652L182.751 103.235V103.468H238.883L239 103.585V133.447H0V103.468L65.3516 103.351L64.5347 102.535L63.4844 101.252L62.3174 99.7354L60.917 97.6357L59.75 95.536L58.8164 93.6696L57.7661 91.3366L57.9995 91.2199L65.585 93.5529L72.0034 95.536L71.77 92.7364V84.9209L72.1201 80.9548L72.8203 76.6387L73.8706 72.4394L75.271 68.24L76.6714 64.9738L78.4219 61.4743L80.2891 58.3248L82.623 54.8253L84.2568 52.6089L85.8906 50.5093L87.1743 48.9928L88.2246 47.7097L89.3916 46.4265L90.2085 45.4933L91.4922 44.0935L93.2427 42.2271L97.9106 37.5612L98.3774 37.7945L99.7778 39.0776L100.828 40.1274L101.762 40.944L103.162 42.3438L103.396 42.4604V40.8273L103.862 38.8443L104.679 36.9779L105.613 35.4615L106.663 34.0617L107.713 32.7785L108.88 31.4954L109.697 30.5622L110.514 29.7456L111.098 29.0457H107.013L102.695 29.3957L99.1943 29.9789L96.2769 30.6788L93.2427 31.612L89.5083 33.1285L86.124 34.7616L83.4399 36.278L81.106 37.6778L79.1221 38.9609L77.7217 39.8941L75.3877 41.5272L75.0376 41.7605L76.3213 41.6439L81.4561 40.8273L83.4399 40.594H85.7739L86.124 40.8273L84.0234 41.9938L80.9893 43.7436L79.0054 45.0267L77.605 45.9599L75.271 47.593L72.8203 49.4594L71.1865 50.7425L69.5527 52.1423L68.269 53.1922L66.4019 54.9419L65.4683 55.7585L63.9512 57.2749L63.0176 58.0915L61.1504 60.0745L59.9834 61.241L59.1665 62.1742L57.7661 63.6906L56.7158 64.9738L55.1987 66.7235L53.915 68.3566L52.3979 70.223L50.7642 72.4394L49.2471 74.5391L46.6797 78.3885L45.396 80.3715L43.9956 82.7045L42.5952 85.1542L40.9614 88.1871L39.0942 92.0365L37.6938 95.4193L36.5269 98.6855L36.1768 99.852L36.0601 99.9687H0V96.1192L0.233398 91.5699L0.700195 86.554L1.40039 81.538L2.21729 77.222L3.38428 72.3227L4.43457 68.7066L5.83496 64.5072L7.46875 60.3078L9.21924 56.4584L11.0864 52.7256L12.6035 50.0427L14.2373 47.3597L15.8711 44.9101L17.2715 42.927L18.3218 41.5272L19.9556 39.4275L21.2393 37.9111L22.2896 36.628L24.04 34.7616L24.8569 33.8284L28.5913 30.0956L29.5249 29.279L30.9253 27.9959L32.209 26.946L33.7261 25.6629L37.2271 22.98L39.3276 21.4635L43.4121 18.7806L46.3296 17.0308L48.7803 15.631L51.4644 14.2312L53.2148 13.298L56.4824 11.7816L60.2168 10.1485L64.418 8.51542L68.7358 6.99897L73.9873 5.36588L78.8887 4.08273L84.1401 2.91624L89.1582 1.98304L94.6431 1.1665L99.8945 0.583248L106.08 0.11665L108.53 0ZM155.677 26.0128L148.675 26.5961L143.54 27.296L139.922 27.9959L136.888 28.8124L134.087 29.7456L130.937 31.1454L128.486 32.5452L126.152 34.1783L124.635 35.4615L123.701 36.278L122.534 37.3279L121.017 38.8443L120.2 39.7775L120.55 39.8941L123.118 39.0776L125.802 38.4943L128.603 38.1444L132.22 37.9111H133.037L130.353 39.4275L126.969 41.4106L124.168 43.1603L119.617 46.1932L117.983 47.3597L115.766 48.9928L113.782 50.5093L111.915 52.0257L110.631 53.0755L108.997 54.4753L107.597 55.7585L106.663 56.575L104.796 58.3248L101.762 61.3577L100.945 62.2909L99.5444 63.8073L98.4941 65.0904L96.977 66.8402L95.8101 68.3566L94.0596 70.6896L92.1924 73.3726L90.792 75.5889L89.2749 78.1552L87.7578 80.9548L86.2407 83.9877L84.7236 87.4872L83.5566 90.6367L82.3896 94.1362L81.8062 96.2359L81.9229 96.5858L86.4741 94.2528L88.6914 93.0863L90.3252 92.2698L88.2246 96.7025L86.3574 101.019L85.4238 103.468H110.981L110.281 102.535L108.647 100.202L107.13 97.869L105.613 95.3027L103.979 92.3864L103.396 91.3366L105.496 91.8032L118.683 95.0694L119.033 94.9527V84.8042L119.267 80.9548L119.733 76.872L120.317 73.4892L121.017 70.3397L122.067 66.8402L123.234 63.6906L124.518 60.8911L125.802 58.3248L127.669 55.1752L129.069 53.0755L130.47 51.0925L131.637 49.5761L132.92 47.943L134.204 46.4265L135.604 44.7934L136.888 43.3936L137.705 42.4604L138.522 41.6439L139.339 40.7107L144.824 35.2282L145.291 35.4615L146.924 37.2112L147.741 38.1444L148.792 39.3109L149.375 40.0108L149.608 39.7775L150.775 36.5113L152.292 33.0118L153.576 30.6788L154.977 28.6958L156.027 27.5293L156.844 26.5961L157.311 26.0128H155.677ZM3.73437 107.668L3.03418 108.017L2.33398 108.834V130.298L2.91748 130.997L3.38428 131.231H10.3862L11.2031 130.647L11.5532 130.181V108.717L10.9697 108.017L10.1528 107.668H3.73437ZM14.2373 107.668L13.3037 108.134L12.8369 108.717L12.7202 108.951V130.181L13.187 130.881L13.8872 131.231H20.7725L21.4727 130.764L22.0562 130.064V108.834L21.356 108.017L20.6558 107.668H14.2373ZM24.9736 107.668L24.1567 108.017L23.4565 108.834V130.298L24.04 130.997L24.5068 131.231H31.5088L32.4424 130.531L32.7925 130.064V108.951L32.3257 108.251L31.6255 107.784L31.2754 107.668H24.9736ZM35.4766 107.668L34.543 108.134L33.9595 108.834V130.181L34.4263 130.881L35.0098 131.231H42.0117L42.9453 130.531L43.2954 130.064V108.951L42.8286 108.251L42.1284 107.784L41.7783 107.668H35.4766ZM45.7461 107.668L44.8125 108.134L44.229 108.834V130.181L44.6958 130.881L45.2793 131.231H52.2812L53.2148 130.531L53.5649 130.064V108.951L53.0981 108.251L52.3979 107.784L52.0479 107.668H45.7461ZM56.1323 107.668L55.1987 108.134L54.6152 108.951V130.064L55.082 130.881L55.7822 131.231H62.7842L63.9512 130.181V108.834L63.4844 108.134L62.5508 107.668H56.1323ZM66.752 107.668L65.8184 108.134L65.2349 108.834V130.181L65.7017 130.881L66.2852 131.231H73.2871L74.2207 130.531L74.5708 130.064V110.817L72.2368 109.184L70.3696 107.784L70.1362 107.668H66.752ZM87.9912 107.668L87.0576 108.134L86.4741 108.834V130.181L86.9409 130.881L87.5244 131.231H94.5264L95.46 130.531L95.8101 130.064V108.951L95.3433 108.251L94.6431 107.784L94.293 107.668H87.9912ZM98.9609 107.668L98.2607 108.017L97.5605 108.834V130.298L98.144 130.997L98.6108 131.231H105.613L106.546 130.531L106.896 129.948V108.951L106.43 108.251L105.729 107.784L105.379 107.668H98.9609ZM109.697 107.668L108.764 108.134L108.18 108.951V130.064L108.647 130.881L109.347 131.231H116.349L117.516 130.181V110.117L116.349 109.067L115.416 108.251L114.715 107.668H109.697ZM132.804 107.668L132.454 108.484L131.403 112.917L130.586 117.466V117.933L129.536 117.583V129.948L129.886 130.647L130.47 131.114L130.703 131.231H137.705L138.872 130.181V108.834L138.405 108.134L137.472 107.668H132.804ZM141.673 107.668L140.739 108.134L140.156 108.951V130.064L140.623 130.764L140.973 131.114L141.323 131.231H148.325L149.492 130.181V108.834L149.025 108.134L148.091 107.668H141.673ZM152.176 107.668L151.242 108.134L150.659 108.834V130.181L151.125 130.881L151.709 131.231H158.711L159.645 130.531L159.995 130.064V108.951L159.528 108.251L158.828 107.784L158.478 107.668H152.176ZM179.25 107.668L178.783 108.251L177.383 110.934L176.449 113.267L175.749 115.6L175.516 116.883V119.099L174.349 118.749L172.715 117.933L172.015 117.466H171.781V130.064L172.248 130.764L172.598 131.114L172.948 131.231H179.95L181.117 130.181V108.834L180.65 108.134L179.717 107.668H179.25ZM183.918 107.668L182.984 108.134L182.401 108.834V130.181L182.868 130.881L183.451 131.231H190.453L191.387 130.531L191.737 130.064V108.951L191.27 108.251L190.57 107.784L190.22 107.668H183.918ZM194.654 107.668L193.954 108.017L193.371 108.601L193.254 108.834V130.298L193.837 130.997L194.304 131.231H201.306L202.123 130.647L202.473 130.181V108.717L201.89 108.017L201.073 107.668H194.654ZM205.391 107.668L204.457 108.134L203.99 108.717L203.874 108.951V130.064L204.34 130.881L205.041 131.231H211.926L212.626 130.764L213.209 130.064V108.834L212.509 108.017L211.809 107.668H205.391ZM216.477 107.668L215.543 108.134L214.96 108.834V130.181L215.427 130.881L216.01 131.231H223.012L223.946 130.531L224.296 130.064V108.951L223.829 108.251L223.129 107.784L222.779 107.668H216.477ZM227.33 107.668L226.396 108.134L225.813 109.067V129.948L226.163 130.647L226.747 131.114L226.98 131.231H233.982L235.149 130.181V108.717L234.682 108.134L233.749 107.668H227.33ZM83.9067 107.901L83.2065 110.467L82.623 113.5L82.3896 115.6L79.7056 114.083L75.9712 111.75H75.7378V130.064L76.2046 130.764L76.9048 131.231H83.9067L85.0737 130.181V108.834L84.6069 108.134L84.2568 107.901H83.9067ZM161.862 108.367L161.512 108.834V130.298L162.095 130.997L162.562 131.231H169.564L170.381 130.647L170.731 130.181V116.65L169.331 115.483L168.164 114.55L166.88 113.383L165.946 112.567L163.729 110.35L162.912 109.417L161.979 108.367H161.862ZM118.917 111.284V130.181L119.383 130.881L119.967 131.231H126.969L127.902 130.531L128.252 130.064V116.883L125.685 115.483L123.001 113.967L119.5 111.634L118.917 111.284Z" fill="#DBE7F3"/>
<path d="M195.238 166.925L195.471 167.159L197.105 171.591V171.825L195.471 172.758V178.824L195.821 179.174L205.974 179.29L205.507 178.59L204.574 177.891L203.523 177.541V175.324L204.457 174.741L206.091 174.158L207.608 173.924H210.175L211.809 174.158L212.976 174.624L213.56 175.091L213.793 175.558V176.374L213.326 177.541L212.276 178.824L211.809 179.057V179.29L220.211 179.174L221.028 178.94L221.145 178.824L221.028 177.774L218.928 172.875L218.578 171.941V171.125L219.161 170.425L224.529 166.925L224.763 167.042L226.396 171.475L226.28 171.941L224.996 172.641H224.763L224.879 179.057L225.229 179.174H232.465L233.515 178.94L233.632 178.824V178.124L231.181 172.408L231.064 172.058V171.125L231.765 170.308L234.682 168.442L236.433 167.275L237.133 166.925L238.65 170.892L238.883 171.475L238.767 171.941L237.25 172.758L237.133 182.207L236.549 183.373L235.499 184.306L234.565 184.773L233.749 185.006H227.447L226.046 184.54L225.113 183.84L224.413 183.023L224.179 182.673L223.712 183.606L222.896 184.423L221.962 184.89L221.495 185.006H211.692L210.409 184.54L209.358 183.84L208.658 183.023L208.425 182.673L207.725 183.723L206.558 184.54L205.157 185.006H198.155L196.755 184.54L195.588 183.723L194.888 182.673L194.187 183.84L193.371 184.54L192.204 185.006H184.268L184.035 186.756L183.334 188.856L182.518 190.489L181.701 191.539L180.767 192.355L180.184 192.588H178.316L175.982 192.122L169.564 190.489V189.672L172.832 188.739L176.683 187.456L178.783 186.523L180.184 185.706L180.767 185.123L176.683 185.006L175.516 184.54L174.582 183.84L174.115 183.14L173.999 182.79V177.424L174.349 176.374L175.399 175.208L176.799 174.624L177.383 174.508H180.067L181.701 174.974L182.984 175.791L183.918 176.841L184.501 178.007L184.735 179.29L190.803 179.174L191.737 178.94L191.854 178.824V178.124L190.336 174.624L189.286 172.058V171.008L189.87 170.425L191.62 169.258L194.304 167.509L195.238 166.925ZM177.266 176.957L176.449 177.307L176.099 177.891L176.216 178.59L176.683 179.057L177.616 179.29H181.234L181 178.824L179.6 177.774L178.2 177.074L177.266 176.957Z" fill="#DBE7F3"/>
<path d="M123.584 166.925L123.818 167.042L125.452 171.475L125.335 171.941L124.051 172.641H123.818V181.857L123.351 183.14L122.884 183.723L121.717 184.54L120.317 185.006H114.482L113.082 184.54L112.148 183.84L111.448 183.023L111.331 182.557H111.098L110.981 183.023L110.164 183.956L109.347 184.54L107.947 185.006H100.945L99.5444 184.54L98.6108 183.84L97.9106 183.023L97.6772 182.673L97.2104 183.606L96.3936 184.423L95.46 184.89L94.9932 185.006H86.4741L85.0737 184.54L84.1401 183.84L83.3232 182.906V182.557H83.0898L82.8564 183.256L82.0395 184.073L80.9893 184.656L79.939 185.006L75.6211 185.123V186.056L75.0376 188.272L73.9873 190.489L73.1704 191.539L72.5869 192.122L71.8867 192.588L71.4199 192.705H70.0195L68.0356 192.355L61.0337 190.605V189.672L61.9673 189.322L65.1182 188.389L68.5024 187.223L71.1865 185.939L71.8867 185.356H72.1201V185.123H68.269L66.9854 184.656L66.0518 183.956L65.4683 183.023L65.3516 182.557V177.774L65.585 176.724L66.1685 175.791L67.102 174.974L68.3857 174.508L69.0859 174.391H71.3032L73.0537 174.858L74.3374 175.674L75.271 176.607L75.9712 178.007L76.2046 179.057L76.3213 179.174H80.2891L80.9893 178.94L81.106 178.824L81.2227 177.074H83.6733L83.79 178.824L83.9067 179.057L84.2568 179.174H93.126L94.5264 178.94L94.9932 178.474V177.774L94.4097 177.191L93.4761 176.841L92.0757 176.607L89.0415 176.491V171.242L89.5083 170.542L90.6753 169.958L99.0776 167.859H99.311V171.825L97.2104 172.408L93.9429 173.225L93.8262 173.341L95.9268 174.041L97.2104 174.974L97.9106 175.791L98.3774 177.074L98.6108 178.94L99.0776 179.174H108.414L109.114 179.057L109.23 177.074H111.681L111.798 178.707L111.915 179.057L112.265 179.174H119.15L120.083 178.94L120.2 178.824V178.007L117.983 172.875L117.633 171.941V171.125L118.216 170.425L120.55 168.909L123.584 166.925ZM68.5024 177.074L67.8022 177.424L67.5688 177.891L67.6855 178.59L68.269 179.057L68.7358 179.174H72.4702V178.94L71.0698 177.891L69.7861 177.191L69.3193 177.074H68.5024Z" fill="#DBE7F3"/>
<path d="M208.191 200.054H226.513L228.964 200.404L231.181 200.987L233.398 201.92L235.032 202.97L236.199 204.02L237.016 205.187L237.366 206.236V208.219L236.899 209.386L236.199 210.319L235.149 211.252L233.282 212.186L231.531 212.769V212.885L233.282 213.352L234.799 213.935L236.316 214.752L237.6 215.802L238.533 217.085L238.883 218.135V219.884L238.417 221.284L237.483 222.567L236.433 223.501L234.682 224.55L232.582 225.484L229.897 226.183L226.863 226.533H208.191V200.054ZM213.91 203.32V211.369H225.93L227.68 211.019L229.197 210.436L230.481 209.619L231.298 208.686L231.648 207.753V206.82L231.064 205.653L230.248 204.837L228.847 204.02L226.98 203.437L226.163 203.32H213.91ZM214.026 214.519L213.91 214.635V223.267H226.747L228.73 222.917L230.598 222.217L231.881 221.284L232.698 220.351L233.048 219.301V218.485L232.582 217.318L232.115 216.735L230.831 215.802L229.314 215.102L227.213 214.635L225.463 214.519H214.026Z" fill="#DBE7F3"/>
<path d="M153.226 200.054H159.061V211.369H181.467V200.054H187.302V226.533H181.467V214.519H159.061V226.533H153.226V200.054Z" fill="#DBE7F3"/>
<path d="M178.316 142.662L178.55 142.779L179.833 149.428L180.184 150.128L180.65 150.361L187.769 150.478L187.302 149.778L186.485 149.078L185.552 148.845V146.512L186.135 146.045L187.536 145.462L189.286 145.112H191.503L193.371 145.462L194.538 146.162L194.771 146.512L194.888 147.328L194.538 148.495L193.837 149.545L193.137 150.361L201.073 150.478V149.195L201.89 147.562L203.407 145.812L204.574 144.879L205.507 144.529H207.141L208.191 144.995L209.125 145.695L210.059 146.745L210.992 148.378L211.576 149.778L211.692 150.595L209.942 153.627L208.892 155.377L208.542 155.844L205.624 155.261L202.473 154.794L202.24 155.377L201.306 155.96L200.723 156.194L199.906 156.31H193.604L192.204 155.96L191.037 155.261L190.336 154.444L189.986 153.861L189.52 154.677L188.703 155.494L187.536 156.077L186.369 156.31H180.65L179.017 155.96L177.85 155.261L177.033 154.211L176.449 152.811V152.344L175.866 152.928L174.349 155.144L173.999 155.494H172.948L171.665 155.027L170.614 154.094L170.147 153.161L170.031 152.694V149.195L170.381 148.262L171.198 147.445L172.481 146.862L174.582 146.395H175.166L174.932 144.879L176.099 144.062L178.316 142.662ZM174.815 148.028L173.765 148.378L173.065 148.961L172.948 149.311V150.361L173.298 150.945L173.999 151.294L174.465 151.411H176.099L176.216 151.178L175.632 148.378L175.282 148.028H174.815ZM204.34 148.262L203.757 148.845V149.778L204.224 150.245L204.924 150.478H208.308L208.075 150.011L207.024 149.078L205.857 148.378L205.507 148.262H204.34Z" fill="#DBE7F3"/>
<path d="M64.3013 200.521H68.269L71.0698 200.871L73.4038 201.454L75.271 202.154L77.2549 203.203L78.4219 204.137L79.3555 205.187L79.4722 205.653L77.3716 206.236L74.5708 206.936H74.3374L73.6372 206.003L72.8203 205.303L71.1865 204.487L69.6694 204.02L68.269 203.787H64.418L62.5508 204.137L60.6836 204.837L59.6333 205.536L58.9331 206.353L58.8164 206.703V207.753L59.2832 208.686L60.4502 209.503L62.3174 210.202L65.4683 211.019L71.1865 212.302L74.104 213.119L76.438 214.052L77.9551 214.868L79.1221 215.802L80.0557 216.851L80.6392 218.018L80.8726 218.951V220.351L80.4058 221.867L79.5889 223.034L78.4219 224.084L76.7881 225.017L75.1543 225.717L72.8203 226.417L69.9028 226.883L68.5024 227H64.6514L61.7339 226.65L59.3999 226.067L57.1826 225.25L55.1987 224.2L53.7983 223.151L52.5146 221.867L51.4644 220.234L51.8145 220.001L56.7158 218.835L57.6494 220.118L58.4663 221.051L59.8667 222.101L61.6172 222.917L63.6011 223.501L65.0015 223.734H68.6191L70.8364 223.384L72.5869 222.801L73.9873 221.984L74.8042 221.051L75.1543 220.001L75.0376 218.835L74.3374 217.785L73.1704 216.968L71.3032 216.152L68.3857 215.335L61.0337 213.702L58.3496 212.885L55.8989 211.719L54.8486 210.902L53.7983 209.853L53.2148 208.686L53.0981 208.219V206.353L53.5649 205.187L54.4985 204.02L55.8989 202.97L57.8828 201.92L59.9834 201.22L62.2007 200.754L64.3013 200.521Z" fill="#DBE7F3"/>
<path d="M5.60156 166.925H5.71826L5.83496 178.94L6.18506 179.174H12.8369L13.5371 178.94L13.6538 178.707L13.7705 177.074H16.1045L16.2212 177.191L16.3379 178.824L16.688 179.174H26.7241L29.9917 178.94L31.3921 178.59L32.0923 178.357L32.209 177.891L31.6255 177.774L28.5913 176.491L26.9575 176.024L25.5571 175.908L24.5068 176.141L24.1567 176.374V177.541L22.9897 178.124L22.1729 177.074L21.9395 176.491V175.558L22.5229 174.508L23.8066 173.108L24.8569 172.408L25.7905 172.058H27.3076L28.9414 172.525L32.209 173.691L34.3096 174.158L37.1104 174.391L39.0942 174.508L38.7441 175.558L37.8105 177.774L37.6938 177.891L36.5269 178.124L35.1265 178.824L34.3096 179.64L33.1426 181.507L32.209 183.14L31.5088 183.956L30.1084 184.656L28.1245 185.006H19.022L17.6216 184.54L16.3379 183.606L15.7544 182.673L14.9375 183.723L14.0039 184.423L12.9536 184.89L12.4868 185.006H3.96777L2.45068 184.54L1.28369 183.723L0.350098 182.673L0 181.623V170.308L3.26758 168.325L5.60156 166.925Z" fill="#DBE7F3"/>
<path d="M150.892 142.079L151.942 142.196L154.276 143.829L155.91 144.995L157.194 146.045L159.061 147.912L160.111 149.545L160.345 150.595L158.361 153.861L157.194 155.844H156.144L154.743 155.494L153.576 154.911L152.526 154.094L152.292 154.677L151.242 155.494L150.309 155.96L148.441 156.31H141.089V157.36L140.623 159.343L139.689 161.56L138.872 162.726L138.289 163.309L137.588 163.776H135.604L133.154 163.193L128.136 161.793L127.902 161.676V160.86L131.287 159.81L134.904 158.41L136.888 157.36L137.822 156.66L137.938 156.427L134.904 156.31L133.854 156.077L132.687 155.377L131.987 154.327L131.87 153.977V148.612L132.337 147.328L133.154 146.395L134.437 145.812L135.021 145.695H137.355L138.522 146.045L139.572 146.628L140.272 147.212L141.089 148.378L141.556 149.778V150.478H146.458V149.311L146.808 147.912L147.508 146.862L148.558 146.045L149.025 145.929V145.695L148.441 145.462L147.858 144.879L149.492 143.129L150.075 142.429L150.892 142.079ZM149.842 147.912L149.025 148.378L148.558 149.195L148.441 149.545V150.361L148.558 150.478H151.009L151.592 150.128L151.709 149.311L151.009 148.262L150.659 147.912H149.842ZM134.437 148.262L133.854 148.845V149.778L134.321 150.245L135.021 150.478H138.405L138.172 150.011L137.122 149.078L135.721 148.262H134.437ZM154.276 148.961L154.16 150.478L154.043 151.411L155.443 152.111L156.144 152.228L156.377 151.761V150.945L155.91 150.128L155.093 149.311L154.51 148.961H154.276Z" fill="#DBE7F3"/>
<path d="M64.418 166.925L64.6514 167.042L66.2852 171.475L66.1685 171.941L64.5347 172.875H64.0679V182.673L63.4844 183.723L62.5508 184.54L61.3838 185.006H53.4482L53.2148 186.873L52.6313 188.622L51.6978 190.489L50.8809 191.539L49.9473 192.355L49.3638 192.588H47.4966L45.1626 192.122L39.0942 190.605L38.7441 190.372V189.789L39.561 189.439L43.1787 188.389L46.4463 187.223L48.6636 186.173L49.9473 185.239L50.064 185.006H45.8628L44.6958 184.54L43.7622 183.84L43.2954 183.14L43.1787 182.79V177.424L43.6455 176.257L44.4624 175.324L45.6294 174.741L46.6797 174.508H49.3638L50.8809 174.974L52.1645 175.791L53.2148 176.957L53.6816 177.891L53.915 178.824V179.29L59.9834 179.174L60.6836 179.057L60.8003 177.657L58.4663 172.058V171.125L59.1665 170.308L61.7339 168.675L64.418 166.925ZM46.563 176.957L45.7461 177.191L45.396 177.541L45.2793 178.24L45.5127 178.824L46.2129 179.174L46.7964 179.29H50.4141L50.1807 178.824L48.7803 177.774L47.3799 177.074L46.563 176.957Z" fill="#DBE7F3"/>
<path d="M0 200.054H4.43457L4.55127 217.318L4.90137 218.951L5.71826 220.468L6.88525 221.634L8.28564 222.451L10.1528 223.034L12.2534 223.267L14.7041 223.151L16.3379 222.801L17.7383 222.217L19.022 221.401L20.0723 220.234L20.6558 219.068L21.0059 217.785L21.1226 200.054H25.6738V216.618L25.4404 218.601L24.8569 220.468L24.04 221.867L22.9897 223.034L21.8228 224.084L20.0723 225.134L17.855 225.95L15.521 226.417L14.2373 226.533H11.4365L9.45264 226.3L7.46875 225.834L5.71826 225.134L4.08447 224.2L2.56738 222.917L1.40039 221.517L0.583496 219.884L0.116699 218.251L0 217.435V200.054Z" fill="#DBE7F3"/>
<path d="M101.645 200.054H132.57V203.203L132.454 203.32H119.967V226.533H114.249V203.32H101.762L101.645 203.203V200.054Z" fill="#DBE7F3"/>
<path d="M219.395 138.113H219.511L219.628 150.011L219.978 150.361H228.147L230.714 150.128L231.998 149.778L232.582 149.195L229.314 147.678L227.797 147.212L226.863 147.095L225.58 147.328L225.346 147.562V148.262L225.463 148.612L224.413 149.311H224.179L223.362 147.912V146.628L223.946 145.579L224.996 144.295L226.163 143.479L226.863 143.246H228.147L229.897 143.829L232.582 144.879L234.449 145.345L236.666 145.579L238.883 145.695L238.533 146.862L237.716 148.961L236.899 149.195L235.849 149.661L235.032 150.245L233.982 151.761L232.815 154.094L231.998 155.144L230.831 155.844L229.081 156.194L227.563 156.31H218.694L217.061 155.96L215.894 155.261L214.96 154.327L214.493 153.394L214.376 152.928V141.496L219.395 138.113Z" fill="#DBE7F3"/>
<path d="M40.9614 142.662L41.1948 142.896L42.5952 149.895L42.9453 150.245L43.2954 150.361L48.3135 150.478V149.195L49.0137 147.795L49.9473 146.628L50.7642 145.695L52.0479 144.762L52.748 144.529H54.3818L55.5488 144.995L56.7158 146.045L57.416 146.862L58.3496 148.495L59.0498 150.361L58.3496 151.644L56.3657 155.027L55.7822 155.844L52.1645 155.144L50.5308 154.911H49.8306L49.2471 155.61L48.3135 156.077L47.2632 156.31H43.2954L41.895 155.96L40.728 155.261L40.0278 154.444L39.6777 153.977L38.9775 155.027L38.0439 155.727L36.877 156.194L36.1768 156.31H34.0762L32.9092 156.077L31.7422 155.494L31.1587 154.911L30.6919 154.327L30.2251 153.161V151.061L30.8086 149.311L31.2754 148.378H32.7925V149.428L33.0259 150.128L33.9595 150.361L38.6274 150.478L37.5771 145.345L37.6938 144.762L40.3779 143.012L40.9614 142.662ZM51.5811 148.262L51.1143 148.612L50.9976 148.961V149.778L51.6978 150.361L52.1645 150.478H55.5488L55.3154 150.011L54.2651 149.078L52.8647 148.262H51.5811Z" fill="#DBE7F3"/>
<path d="M80.1724 144.295L80.6392 144.529L81.4561 145.812L81.8062 146.862L81.9229 149.895V152.811L81.6895 153.861L81.2227 154.677L80.4058 155.494L79.2388 156.077L78.0718 156.31H71.8867V157.36L71.3032 159.693L70.4863 161.56L69.6694 162.726L69.0859 163.309L68.3857 163.776H66.4019L63.9512 163.193L58.8164 161.793L58.6997 161.676V160.86L62.084 159.81L65.1182 158.643L67.102 157.71L68.269 156.894L68.6191 156.777L68.7358 156.427L65.7017 156.31L64.6514 156.077L63.4844 155.377L62.7842 154.327L62.6675 153.977V148.495L63.1343 147.328L63.9512 146.395L65.2349 145.812L65.8184 145.695H68.1523L69.3193 146.045L70.4863 146.745L71.0698 147.212L71.8867 148.495L72.3535 149.778V150.478H79.3555L79.1221 149.428L78.4219 148.262L77.3716 147.095L76.9048 146.745L77.0215 146.395L80.1724 144.295ZM65.2349 148.262L64.6514 148.845V149.778L65.1182 150.245L65.8184 150.478H69.2026L68.9692 150.011L67.9189 149.078L66.5186 148.262H65.2349Z" fill="#DBE7F3"/>
<path d="M25.0903 144.295L25.5571 144.529L26.374 145.812L26.7241 146.862L26.8408 148.028V153.044L26.4907 154.211L25.4404 155.377L24.5068 155.96L23.8066 156.194L22.9897 156.31H18.3218L16.9214 155.96L15.8711 155.377V156.544L15.6377 157.943L14.9375 159.343L14.1206 160.276L12.4868 161.326L10.9697 161.793L9.45264 162.026H7.11865L5.01807 161.676L3.50098 161.093L2.21729 160.276L1.16699 159.227L0.466797 158.06L0.116699 157.01L0 156.31V154.561L0.466797 152.694L1.40039 150.828H3.96777L3.61768 151.878L3.38428 152.694V153.861L3.85107 154.794L4.90137 155.494L5.95166 155.844L6.65186 155.96H9.56934L11.2031 155.61L12.3701 155.027L12.8369 154.444V153.511L12.02 152.461L10.7363 150.945V150.711L14.9375 147.912L15.1709 148.028L15.8711 149.428L16.4546 150.011L17.2715 150.361L24.2734 150.478L24.04 149.428L23.3398 148.262L22.2896 147.095L21.8228 146.745L21.9395 146.395L25.0903 144.295Z" fill="#DBE7F3"/>
<path d="M101.412 142.429H106.78V143.712L105.146 144.529L103.629 145.579L102.579 146.628L102.462 146.862L105.846 146.978L107.013 147.328L108.063 148.028L108.764 148.845L109.114 149.661V155.844L108.647 157.127L107.713 158.41L106.43 159.343L105.029 159.927L103.979 160.16H98.6108L96.5103 159.81L94.9932 159.227L93.8262 158.527L92.7759 157.594L91.959 156.31L91.6089 155.261L91.4922 154.561V153.044L91.959 151.178L92.7759 149.545L93.126 149.195H95.5767L95.3433 149.895L94.8765 151.178V152.228L95.3433 153.161L96.0435 153.744L97.2104 154.211L98.4941 154.444H104.329L105.496 154.094L106.08 153.627L106.43 152.811H100.478L99.5444 152.461L98.8442 151.878L98.4941 151.178V144.879L99.0776 143.712L100.128 142.896L101.412 142.429Z" fill="#DBE7F3"/>
<path d="M141.79 174.508H144.474L145.991 174.974L147.041 175.674L147.975 176.724L148.675 178.124L149.142 179.757L149.258 180.573V183.373L148.908 185.589L148.208 188.039L147.274 189.905L146.458 191.189L145.524 192.122L144.59 192.588H142.723L140.389 192.122L134.321 190.605L134.087 190.489V189.672L138.755 188.272L141.673 187.223L144.124 186.056L145.174 185.239L145.291 185.006H141.089L139.689 184.423L138.989 183.84L138.405 182.673V177.541L138.872 176.257L139.689 175.324L140.856 174.741L141.79 174.508ZM141.79 176.957L140.973 177.191L140.623 177.657V178.59L141.089 179.057L142.023 179.29H145.641L145.407 178.824L143.657 177.541L142.606 177.074L141.79 176.957Z" fill="#DBE7F3"/>
<path d="M163.262 173.341H164.779L166.063 173.808L167.113 174.508L168.047 175.441L169.097 177.074L169.914 178.94L169.797 179.64L168.047 182.323L166.53 184.656L164.779 183.723L163.029 183.023L161.395 182.673H159.061L158.361 183.023L158.011 183.606L157.894 184.19V186.056L158.361 191.072V191.772L153.926 193.522L153.343 193.638V182.207L153.81 181.04L154.626 180.107L155.793 179.407L156.96 178.94L158.944 178.59H162.212L165.013 178.94L166.18 179.057L165.013 178.007L163.729 177.307L163.262 177.191H160.928L159.294 177.657L158.594 177.891L158.361 177.541L158.828 176.607L159.645 175.558L160.812 174.391L162.329 173.575L163.262 173.341Z" fill="#DBE7F3"/>
<path d="M115.649 147.678L116.116 147.795L117.283 148.845L118.333 150.478L118.917 151.994L119.15 152.928L119.267 153.977V155.144L118.917 157.127L118.216 159.227L117.283 161.093L116.583 162.143L115.532 163.193L114.365 163.776L113.432 163.893L111.448 163.543L107.947 162.493L105.846 161.793L105.729 161.676V160.86L108.063 160.276L110.514 159.343L112.965 158.177L114.249 157.36L115.416 156.427L115.766 155.96V155.144L115.182 154.211L114.132 153.044L112.848 151.994V151.644L114.365 149.428L115.649 147.678Z" fill="#DBE7F3"/>
<path d="M133.271 166.925H133.504L135.254 171.591V171.825L134.087 172.525H133.854L133.504 182.673L131.637 183.84L129.653 185.006H129.419L128.252 172.291V171.008L128.719 170.075L129.653 169.258L132.22 167.625L133.271 166.925Z" fill="#DBE7F3"/>
<path d="M127.202 138.113H127.436L128.953 142.662L128.836 143.129L127.786 143.829L127.552 150.128L127.436 153.861L126.152 154.794L124.285 155.96L123.701 156.194L122.651 143.479V142.196L123.234 141.029L124.401 140.096L126.619 138.58L127.202 138.113Z" fill="#DBE7F3"/>
<path d="M6.65186 186.173H7.35205L8.98584 187.339L9.45264 187.572L11.3198 186.173H12.02L14.1206 187.806L14.2373 188.272L12.9536 189.322L12.02 190.022H11.3198L9.45264 188.622L8.63574 189.089L7.46875 190.022H6.65186L5.25146 188.856L4.55127 188.389V187.806L6.41846 186.406L6.65186 186.173Z" fill="#DBE7F3"/>
<path d="M102.929 171.708L103.746 171.825L105.379 173.108L105.846 172.991L107.48 171.708L108.297 171.825L110.281 173.341L110.397 173.924L108.18 175.558H107.363L105.963 174.391L105.496 174.158L103.629 175.558H102.812L100.945 174.041L100.711 173.924L100.828 173.341L102.462 172.058L102.929 171.708Z" fill="#DBE7F3"/>
<path d="M98.0273 160.976L98.7275 161.093L99.8945 162.143L100.478 162.376L101.995 161.093L102.695 160.976L104.329 162.376L104.796 162.726L104.679 163.309L103.396 164.359L102.695 164.942L101.995 164.826L100.711 163.659L100.245 163.543L98.7275 164.826L98.0273 164.942L96.8604 163.893L96.0435 163.193L96.1602 162.609L97.5605 161.326L98.0273 160.976Z" fill="#DBE7F3"/>
<path d="M18.5552 157.36H19.1387L20.7725 158.76L21.356 158.527L22.6396 157.36L23.4565 157.477L24.5068 158.41L25.3237 159.11L25.207 159.693L23.9233 160.743L23.3398 161.21H22.6396L21.0059 159.81L20.3057 160.276L19.1387 161.21H18.4385L17.1548 160.043L16.5713 159.577V158.993L17.855 157.943L18.5552 157.36Z" fill="#DBE7F3"/>
<path d="M171.898 138.58H172.715L173.882 139.629L174.232 139.863L174.699 139.746L176.099 138.58H176.799L178.316 139.863L178.783 140.213L178.667 140.796L177.033 142.196L176.683 142.429H176.099L174.699 141.146L174.232 141.029L172.598 142.429H172.015L170.264 140.913L170.031 140.679L170.147 140.096L171.898 138.58Z" fill="#DBE7F3"/>
<path d="M77.9551 171.708H78.5386L80.8726 173.458V173.924L78.6553 175.558L78.0718 175.674L76.7881 174.741L75.7378 173.924L75.8545 173.341L77.605 171.941L77.9551 171.708Z" fill="#DBE7F3"/>
<path d="M24.3901 186.173L25.207 186.289L27.3076 187.922V188.389L25.0903 190.022H24.2734L22.4062 188.506L22.1729 188.389L22.2896 187.806L23.9233 186.523L24.3901 186.173Z" fill="#DBE7F3"/>
<path d="M7.35205 146.512H7.93555L9.56934 147.912L10.0361 148.262L9.91943 148.845L8.28564 150.128L7.93555 150.478H7.35205L5.95166 149.195L5.36816 148.728L5.48486 148.145L6.65186 147.095L7.35205 146.512Z" fill="#DBE7F3"/>
<path d="M75.7378 157.36H76.438L78.0718 158.76L78.4219 158.993V159.577L76.9048 160.86L76.438 161.21H75.7378L74.3374 159.927L73.8706 159.577V158.993L75.6211 157.477L75.7378 157.36Z" fill="#DBE7F3"/>
<path d="M225.58 157.36L226.163 157.477L227.33 158.41L228.147 159.11L228.03 159.693L226.396 161.093L226.046 161.326L225.463 161.21L223.829 159.81L223.596 159.577L223.712 158.993L225.113 157.71L225.58 157.36Z" fill="#DBE7F3"/>
</svg>
